<?xml version="1.0" standalone="no"?>
<!DOCTYPE svg PUBLIC "-//W3C//DTD SVG 20010904//EN"
 "http://www.w3.org/TR/2001/REC-SVG-20010904/DTD/svg10.dtd">
<svg version="1.0" xmlns="http://www.w3.org/2000/svg"
 width="2500.000000pt" height="2500.000000pt" viewBox="0 0 2500.000000 2500.000000"
 preserveAspectRatio="xMidYMid meet">
<metadata>
Created by potrace 1.14, written by Peter Selinger 2001-2017
</metadata>
<g transform="translate(0.000000,2500.000000) scale(0.100000,-0.100000)"
fill="#000000" stroke="none">
<path d="M10160 24890 c-12 -8 -10 -10 8 -10 13 0 20 4 17 10 -7 12 -6 12 -25
0z"/>
<path d="M10218 24893 c7 -3 16 -2 19 1 4 3 -2 6 -13 5 -11 0 -14 -3 -6 -6z"/>
<path d="M10280 24870 c-13 -8 -12 -10 3 -10 9 0 17 5 17 10 0 12 -1 12 -20 0z"/>
<path d="M9840 24820 c0 -5 5 -10 10 -10 6 0 10 5 10 10 0 6 -4 10 -10 10 -5
0 -10 -4 -10 -10z"/>
<path d="M9816 24785 c-3 -8 -1 -15 4 -15 6 0 10 7 10 15 0 8 -2 15 -4 15 -2
0 -6 -7 -10 -15z"/>
<path d="M9770 24749 c0 -5 5 -7 10 -4 6 3 10 8 10 11 0 2 -4 4 -10 4 -5 0
-10 -5 -10 -11z"/>
<path d="M12390 24746 c0 -2 8 -10 18 -17 15 -13 16 -12 3 4 -13 16 -21 21
-21 13z"/>
<path d="M15675 24710 c-4 -6 12 -10 39 -10 25 0 46 5 46 10 0 6 -18 10 -39
10 -22 0 -43 -4 -46 -10z"/>
<path d="M15890 24706 c0 -8 5 -18 11 -21 17 -11 131 -36 137 -30 3 3 0 5 -7
5 -7 0 -10 4 -7 9 6 10 -49 34 -101 46 -26 5 -33 3 -33 -9z"/>
<path d="M15530 24680 c0 -5 7 -7 15 -4 8 4 15 8 15 10 0 2 -7 4 -15 4 -8 0
-15 -4 -15 -10z"/>
<path d="M15444 24652 c-52 -29 -114 -83 -114 -98 0 -17 27 -2 95 52 22 17 54
39 70 47 29 16 30 16 5 16 -14 0 -39 -8 -56 -17z"/>
<path d="M16378 24660 c-9 -6 -15 -17 -12 -25 8 -19 69 -38 100 -31 20 5 25
12 22 34 -3 24 -7 27 -48 29 -25 2 -53 -2 -62 -7z"/>
<path d="M16050 24640 c0 -3 28 -12 63 -19 34 -8 69 -19 77 -25 8 -6 5 1 -5
16 -11 15 -27 28 -35 29 -52 5 -100 5 -100 -1z"/>
<path d="M14716 24581 c-4 -7 -5 -15 -2 -18 9 -9 19 4 14 18 -4 11 -6 11 -12
0z"/>
<path d="M11512 24548 c-30 -30 1 -61 62 -65 22 -1 58 -5 79 -8 20 -3 37 -2
36 2 0 7 -147 84 -159 83 -4 0 -11 -5 -18 -12z"/>
<path d="M12463 24547 c-15 -20 -33 -91 -33 -132 0 -29 -9 -49 -36 -81 -46
-57 -45 -99 1 -99 26 0 30 4 33 30 2 17 11 38 19 47 9 10 17 38 18 63 0 26 8
52 18 63 13 15 16 29 11 66 -7 50 -16 63 -31 43z"/>
<path d="M13880 24542 c0 -18 12 -42 21 -42 14 0 10 26 -6 40 -9 8 -15 8 -15
2z"/>
<path d="M15291 24516 c-7 -8 -8 -17 -3 -20 6 -3 15 1 21 8 7 8 8 17 3 20 -6
3 -15 -1 -21 -8z"/>
<path d="M16476 24492 c-6 -11 93 -87 122 -94 33 -9 27 6 -20 44 -49 38 -95
61 -102 50z"/>
<path d="M11706 24471 c-7 -11 37 -41 59 -41 8 0 15 7 15 15 0 25 -61 47 -74
26z"/>
<path d="M12973 24443 c-14 -15 -34 -23 -56 -23 -22 0 -41 -8 -53 -21 -23 -25
-63 -20 -109 15 -47 36 -80 38 -90 4 -6 -15 -1 -26 16 -39 22 -17 22 -17 5
-45 -50 -78 -245 -238 -306 -250 -23 -5 -30 -12 -30 -30 0 -14 5 -33 12 -43
24 -39 -16 -69 -49 -35 -14 14 -18 13 -42 -10 -15 -14 -35 -26 -44 -26 -19 0
-57 55 -57 83 0 18 5 20 55 21 43 1 47 20 5 24 -67 5 -78 12 -131 86 -29 40
-67 83 -85 95 -17 12 -62 51 -100 87 -61 58 -104 92 -104 81 0 -2 32 -35 71
-73 111 -109 161 -178 167 -232 4 -36 13 -55 39 -82 71 -73 12 -105 -95 -51
-53 27 -64 29 -98 19 -22 -5 -52 -17 -69 -26 -16 -8 -43 -15 -59 -14 -35 1
-66 -14 -66 -31 0 -7 13 -18 30 -25 38 -17 93 -69 86 -81 -10 -16 -82 -23
-124 -11 -23 6 -54 21 -69 33 -15 13 -53 35 -84 50 -52 25 -59 26 -110 15 -46
-9 -64 -9 -105 4 -50 16 -118 30 -166 33 -22 1 -28 -3 -28 -18 0 -18 -5 -19
-55 -12 -52 6 -72 -3 -45 -20 8 -5 8 -11 1 -19 -8 -9 4 -22 44 -49 31 -20 57
-37 60 -37 3 0 34 -18 70 -40 36 -22 69 -40 74 -40 19 0 71 -53 71 -72 0 -18
-4 -19 -41 -13 -23 4 -62 20 -88 36 -26 17 -79 36 -121 45 -41 8 -86 23 -100
32 -19 12 -44 15 -98 13 -44 -1 -89 3 -115 12 -23 8 -71 20 -105 26 -55 10
-67 10 -88 -4 -36 -23 -33 -79 7 -133 25 -35 29 -45 19 -57 -7 -8 -23 -15 -36
-15 -13 0 -48 -12 -79 -26 -70 -34 -115 -27 -167 23 -31 30 -41 34 -65 28 -72
-18 -149 -24 -179 -13 -17 6 -44 8 -60 4 l-29 -8 29 -23 c16 -12 27 -28 24
-35 -4 -13 -82 -40 -187 -65 -71 -17 -131 -43 -131 -56 0 -28 211 -14 276 19
70 35 216 60 312 54 23 -2 23 -2 -5 -25 -37 -32 -99 -52 -210 -72 -51 -9 -109
-23 -129 -31 -37 -16 -142 -45 -249 -69 -33 -7 -82 -23 -108 -34 -27 -12 -61
-21 -77 -21 -45 0 -108 -27 -195 -84 -75 -49 -165 -139 -165 -164 0 -6 -10
-18 -22 -26 -19 -13 -19 -16 -5 -22 18 -6 304 116 346 148 13 10 29 18 35 18
6 0 59 20 118 44 94 39 117 45 192 47 47 2 89 -1 93 -5 14 -13 -44 -54 -101
-70 -30 -9 -62 -23 -70 -32 -41 -40 -218 -125 -361 -172 -33 -11 -105 -39
-160 -62 -82 -34 -117 -43 -197 -50 -53 -4 -101 -11 -107 -14 -6 -4 -35 5 -64
19 -42 19 -70 25 -123 25 -39 0 -74 -4 -80 -10 -5 -5 -33 -12 -61 -15 -78 -8
-149 -23 -237 -50 -45 -14 -92 -29 -106 -33 -14 -4 -27 -17 -30 -32 -6 -25
-27 -31 -61 -16 -9 4 -31 -4 -54 -20 -35 -23 -55 -27 -199 -40 -243 -21 -270
-24 -280 -34 -6 -6 -19 -10 -29 -10 -11 0 -50 -9 -87 -20 -36 -11 -100 -21
-141 -23 -41 -1 -79 -6 -86 -10 -6 -4 -33 -10 -60 -13 -26 -4 -76 -20 -110
-35 -34 -16 -74 -29 -88 -29 -44 0 -162 -37 -210 -67 -58 -35 -67 -40 -135
-80 -58 -33 -233 -212 -238 -243 -2 -9 -19 -34 -38 -55 -18 -21 -34 -41 -34
-45 0 -4 -13 -19 -30 -33 -16 -15 -41 -44 -54 -66 -14 -22 -33 -45 -43 -53
-66 -49 -188 -228 -199 -293 l-7 -40 64 69 c35 38 75 84 89 101 14 18 40 46
58 64 17 18 32 40 32 49 0 22 62 117 106 162 19 20 34 41 34 47 0 6 7 16 15
23 8 7 15 20 15 30 0 19 78 100 96 100 12 0 104 59 134 85 8 7 32 22 53 34 20
12 54 30 74 42 41 23 136 54 198 64 22 4 92 20 155 35 183 44 276 59 418 64
109 3 140 8 173 25 52 27 75 26 95 -3 11 -18 31 -28 72 -36 31 -7 76 -16 100
-21 24 -5 47 -7 53 -4 19 12 20 -26 2 -62 l-19 -37 -85 -2 c-46 -2 -185 -6
-309 -9 -233 -6 -370 -21 -392 -42 -6 -7 -25 -13 -40 -13 -15 0 -28 -4 -28
-10 0 -5 5 -9 11 -7 6 1 14 -4 16 -10 7 -20 -21 -15 -40 7 -19 23 -35 24 -109
9 -125 -25 -144 -32 -193 -64 -28 -19 -71 -41 -94 -50 -23 -8 -54 -23 -69 -33
-15 -11 -47 -29 -70 -41 -57 -29 -227 -198 -236 -233 -3 -15 -14 -32 -24 -37
-11 -6 -36 -37 -57 -70 -21 -34 -41 -61 -45 -61 -11 0 -39 -79 -30 -85 4 -3
27 18 51 46 24 28 81 80 127 116 45 36 82 69 82 72 0 14 112 81 135 81 14 0
25 -2 25 -5 0 -3 -25 -31 -55 -63 -30 -31 -74 -80 -98 -109 -110 -134 -183
-213 -198 -213 -31 0 -66 -38 -73 -79 -3 -21 -19 -68 -36 -103 -16 -34 -30
-69 -30 -77 0 -18 -61 -141 -70 -141 -4 0 -22 -27 -39 -60 -17 -32 -44 -72
-60 -87 -15 -15 -42 -59 -59 -98 -18 -38 -37 -77 -42 -85 -5 -8 -17 -30 -26
-48 -10 -20 -26 -34 -43 -38 -14 -3 -33 -9 -41 -14 -8 -6 -33 -19 -55 -31 -22
-12 -42 -25 -45 -29 -3 -4 -61 -44 -130 -90 -113 -75 -255 -189 -304 -244
-119 -135 -199 -259 -311 -481 -90 -180 -109 -235 -82 -235 21 0 53 42 68 88
13 41 121 252 150 294 11 14 19 28 19 31 0 19 93 140 154 200 127 128 253 214
391 267 44 17 94 38 110 47 17 8 41 13 55 12 25 -4 25 -5 22 -89 -2 -58 1 -96
11 -119 10 -23 13 -55 9 -101 -4 -58 -1 -74 17 -103 29 -47 19 -67 -31 -67
-25 0 -52 -9 -76 -25 -20 -14 -41 -25 -45 -25 -8 0 -121 -77 -187 -128 -37
-29 -222 -138 -330 -195 -52 -28 -97 -54 -100 -57 -3 -3 -20 -12 -38 -19 -18
-8 -41 -26 -52 -41 -11 -15 -37 -32 -62 -40 -24 -8 -65 -26 -93 -40 -27 -14
-86 -41 -130 -60 -44 -18 -91 -41 -105 -50 -25 -16 -78 -39 -250 -105 -208
-81 -393 -165 -500 -227 -25 -15 -68 -39 -96 -55 -58 -32 -106 -67 -141 -102
-28 -29 -113 -156 -113 -170 0 -21 39 3 51 32 16 38 162 187 184 187 8 0 50
18 93 39 184 93 380 174 447 185 22 4 90 22 150 41 142 44 595 189 660 210 28
10 70 20 94 22 41 5 43 4 29 -10 -24 -25 -113 -75 -181 -103 -34 -14 -75 -31
-92 -39 -16 -7 -73 -30 -125 -49 -52 -20 -126 -49 -165 -65 -38 -15 -189 -67
-335 -115 -211 -69 -299 -103 -430 -169 -132 -65 -169 -89 -185 -115 -11 -17
-37 -55 -57 -84 -21 -28 -41 -67 -44 -87 -4 -20 -13 -49 -21 -65 -9 -16 -23
-57 -33 -90 -10 -34 -28 -86 -39 -116 -29 -82 -50 -222 -50 -343 -1 -60 -3
-113 -7 -118 -3 -5 -1 -9 4 -9 5 0 14 48 19 108 11 102 26 159 94 357 55 161
78 205 144 274 49 51 61 68 49 74 -18 10 -18 34 0 53 19 19 28 18 25 -3 -6
-63 11 -57 131 45 68 59 117 93 145 101 24 7 52 23 63 36 12 13 40 29 64 35
24 6 66 22 93 34 28 13 82 33 120 45 161 49 204 62 286 85 48 13 97 30 109 36
12 6 76 27 143 46 66 19 126 38 131 43 6 4 34 16 61 26 28 10 69 29 92 43 37
20 45 22 61 10 19 -13 19 -15 -11 -60 -24 -37 -42 -51 -76 -63 -25 -8 -75 -35
-112 -60 -37 -25 -73 -45 -81 -45 -7 0 -24 -9 -36 -18 -32 -25 -28 -68 6 -64
15 2 22 -2 22 -12 0 -9 3 -16 8 -16 18 -1 32 -18 26 -33 -8 -21 -54 -23 -54
-2 0 23 -9 19 -56 -29 -126 -126 -205 -121 -119 7 34 51 45 87 25 87 -10 0
-77 -36 -97 -52 -7 -6 -13 -20 -13 -31 0 -21 -46 -77 -63 -77 -14 0 -35 -29
-57 -76 -33 -74 -111 -109 -130 -59 -7 18 -14 23 -27 18 -19 -7 -49 -31 -67
-51 -6 -8 -28 -31 -48 -53 -21 -21 -38 -42 -38 -47 0 -5 -12 -15 -27 -23 -31
-16 -60 -37 -77 -57 -6 -7 -20 -21 -30 -30 -44 -39 -113 -110 -147 -152 -166
-210 -266 -479 -229 -620 7 -25 18 -74 25 -110 32 -167 88 -317 191 -518 46
-90 103 -189 127 -221 55 -72 96 -161 90 -193 -3 -15 5 -42 19 -68 35 -64 41
-73 71 -102 36 -36 34 -60 -7 -105 -18 -21 -44 -56 -58 -78 -90 -143 -450
-500 -582 -578 -17 -11 -40 -27 -51 -36 -11 -9 -32 -23 -47 -31 -16 -7 -28
-17 -28 -22 0 -4 -6 -8 -13 -8 -7 0 -32 -9 -55 -20 -22 -11 -48 -20 -57 -20
-8 0 -15 -4 -15 -8 0 -9 -62 -26 -149 -41 -36 -6 -68 -16 -71 -22 -4 -6 -39
-16 -79 -22 -39 -6 -71 -14 -71 -18 0 -3 24 -12 54 -19 40 -9 61 -10 87 -1 26
8 45 8 77 -1 l42 -13 -81 -65 c-142 -113 -291 -266 -189 -192 93 66 300 168
485 238 319 121 428 193 730 483 61 58 120 113 130 121 55 42 86 61 94 56 19
-12 20 -93 5 -268 -8 -101 -13 -217 -10 -258 5 -57 1 -93 -13 -148 -15 -57
-17 -79 -9 -106 16 -52 4 -79 -80 -168 -127 -136 -180 -184 -327 -296 -77 -59
-169 -132 -205 -163 -57 -49 -83 -75 -161 -159 -18 -19 -83 -129 -113 -190
-53 -107 -136 -409 -136 -491 1 -69 8 -56 59 97 87 262 160 390 315 548 88 89
150 146 161 146 8 0 120 87 135 104 7 9 18 16 25 16 7 0 27 18 45 40 18 22 36
40 41 40 4 0 56 48 116 106 120 117 142 131 185 113 26 -11 28 -15 24 -58 -3
-25 -5 -49 -5 -53 -1 -12 -41 -9 -41 2 0 22 -22 7 -61 -42 -22 -29 -49 -63
-60 -76 -10 -12 -32 -41 -49 -64 -17 -22 -64 -78 -106 -122 -99 -104 -147
-170 -190 -259 -20 -40 -40 -80 -46 -91 -5 -10 -16 -36 -23 -57 -26 -72 24
-56 62 20 10 20 41 70 69 111 28 41 59 90 69 109 54 105 260 332 341 376 47
25 56 11 51 -75 -4 -69 -34 -140 -81 -194 -14 -16 -26 -34 -26 -40 0 -7 -9
-19 -20 -29 -21 -17 -23 -31 -20 -128 1 -48 -3 -62 -34 -109 -20 -30 -36 -62
-36 -71 0 -12 -9 -16 -30 -15 -16 1 -30 3 -30 6 0 14 38 100 62 140 30 50 39
91 22 97 -6 2 -39 -29 -75 -69 -35 -40 -98 -107 -140 -148 -97 -96 -147 -160
-159 -201 -5 -18 -8 -34 -6 -36 2 -2 27 10 55 27 29 16 56 30 62 30 6 0 34 25
63 56 49 51 55 55 75 42 26 -16 26 -16 -4 -88 -14 -33 -25 -66 -25 -73 0 -8
-33 -28 -77 -46 -43 -17 -85 -35 -93 -40 -15 -8 -63 -75 -110 -151 -31 -52
-79 -102 -91 -94 -21 13 -7 86 37 185 41 93 46 114 50 197 3 63 1 91 -6 87
-15 -9 -54 -91 -75 -155 -10 -30 -21 -59 -25 -65 -21 -29 -49 -215 -32 -215 5
0 13 -11 16 -25 6 -25 59 -55 95 -55 18 0 63 48 119 130 27 40 57 67 107 96
62 38 134 112 135 139 0 10 96 95 183 162 65 49 227 127 239 115 17 -17 -13
-54 -89 -111 -37 -27 -97 -84 -132 -126 -35 -41 -68 -75 -72 -75 -9 0 -49 -67
-49 -82 0 -6 11 -8 27 -5 65 13 68 12 68 -8 0 -11 -11 -25 -24 -31 -13 -7 -30
-26 -37 -43 -10 -23 -20 -31 -38 -31 -44 0 -194 -179 -268 -320 -16 -30 -43
-77 -58 -105 -28 -47 -39 -88 -22 -82 12 4 15 -7 7 -32 -8 -26 8 -43 32 -34 7
3 13 0 13 -6 0 -6 5 -11 10 -11 16 0 31 48 31 99 1 43 20 91 37 91 4 0 17 -16
30 -35 15 -24 30 -35 47 -35 28 0 48 -29 39 -57 -8 -24 -74 -184 -85 -205 -12
-23 -12 -65 0 -72 5 -3 12 1 15 10 15 39 145 222 185 260 42 41 71 48 71 17 0
-8 -12 -49 -26 -91 -28 -81 -44 -222 -26 -222 10 0 42 70 42 91 0 6 16 46 36
88 19 42 38 88 41 103 3 15 16 40 30 54 23 25 25 26 44 8 18 -16 20 -27 15
-84 -17 -189 -17 -390 -2 -529 9 -79 16 -166 16 -193 0 -52 37 -140 66 -156
16 -9 44 -97 44 -138 0 -40 26 -34 61 13 66 88 71 102 64 174 -5 52 -3 68 9
78 22 19 51 5 88 -41 18 -22 38 -46 45 -53 7 -7 15 -25 19 -40 29 -116 35 296
8 551 -26 253 -11 408 59 615 61 178 191 360 282 395 103 39 291 -11 488 -130
50 -30 81 -61 191 -186 124 -141 191 -230 228 -304 17 -33 44 -78 61 -99 26
-33 30 -48 34 -115 2 -42 10 -113 19 -157 9 -43 15 -128 15 -188 0 -106 -10
-161 -38 -203 -7 -11 -10 -24 -6 -27 3 -4 -3 -16 -15 -27 -12 -12 -22 -26 -22
-33 0 -16 84 -77 105 -77 18 0 20 -36 4 -77 -16 -42 -49 -73 -79 -73 -15 0
-47 -11 -71 -25 -24 -14 -55 -30 -69 -36 -14 -6 -32 -15 -40 -20 -8 -5 -37
-21 -65 -35 -27 -15 -70 -50 -95 -78 -24 -28 -75 -81 -111 -118 -59 -59 -68
-74 -84 -135 -10 -37 -26 -79 -35 -93 -10 -14 -32 -53 -49 -88 -29 -57 -31
-67 -21 -98 6 -19 15 -34 19 -34 5 0 60 -103 94 -177 9 -20 34 -30 118 -47 33
-7 39 -27 39 -128 0 -44 4 -78 10 -78 5 0 7 6 5 13 -3 6 -1 19 5 27 7 12 13
11 34 -9 14 -13 24 -27 21 -30 -2 -4 1 -13 6 -21 8 -12 14 -10 37 15 15 17 33
30 41 30 8 0 21 24 31 60 25 88 179 377 252 474 154 204 190 295 154 397 -7
22 -16 108 -20 192 l-8 153 34 -3 c32 -3 33 -4 30 -43 -1 -22 5 -70 13 -107 8
-37 15 -98 16 -135 0 -37 4 -93 9 -123 5 -30 16 -115 25 -189 17 -151 37 -255
65 -351 105 -354 125 -403 185 -460 20 -19 46 -52 57 -72 12 -21 30 -40 40
-44 22 -7 53 17 74 57 12 24 11 28 -14 46 -15 11 -42 24 -60 28 -43 9 -46 49
-4 60 75 19 83 79 21 173 -38 58 -41 68 -43 142 -3 83 -13 108 -62 153 -17 16
-29 42 -35 73 -5 27 -16 52 -24 57 -20 11 -20 81 0 97 8 7 15 24 15 38 0 14 6
33 14 41 16 19 36 98 30 116 -3 6 5 45 17 86 16 54 22 105 23 191 1 64 7 122
13 130 10 12 26 62 27 83 1 6 -13 9 -30 7 -30 -3 -31 -1 -37 42 -4 25 -2 57 3
70 5 13 7 26 4 28 -2 3 3 21 11 41 20 48 20 140 0 157 -19 16 -19 47 2 127
l18 64 -24 18 -24 18 28 37 c15 20 30 36 34 36 3 0 41 33 83 73 74 69 105 117
76 117 -32 -1 -88 -28 -111 -55 -32 -39 -92 -62 -113 -44 -12 10 -10 16 17 40
18 16 41 31 51 35 19 6 21 12 18 57 -1 23 17 46 112 140 62 62 133 134 157
160 24 26 47 47 52 47 5 0 15 14 24 30 23 45 -1 39 -75 -17 -103 -79 -133
-100 -185 -132 -105 -63 -204 -127 -236 -152 -61 -47 -285 -159 -319 -159 -51
0 -31 22 58 61 45 20 107 52 139 73 32 20 69 39 83 43 26 7 59 40 60 59 0 7
61 62 135 124 75 62 141 121 148 130 7 9 31 39 55 65 59 66 54 95 -14 95 -24
0 -33 23 -14 35 7 4 6 13 -1 27 -10 18 -6 25 26 54 31 27 38 41 43 81 2 27 11
52 19 57 21 12 53 85 53 121 0 17 7 40 15 52 8 12 20 45 25 74 11 59 44 130
77 165 27 30 113 186 113 206 0 8 10 28 22 43 24 31 47 70 73 123 8 17 19 32
24 32 6 0 13 9 16 20 9 29 86 98 148 133 28 17 70 45 92 62 22 18 58 42 80 53
81 41 285 235 285 271 0 6 -22 -3 -50 -20 -27 -17 -50 -34 -50 -38 0 -10 -94
-71 -152 -98 -27 -12 -48 -26 -48 -31 0 -11 -100 -62 -121 -62 -9 0 -32 -7
-51 -15 -32 -13 -145 -23 -338 -30 -41 -1 -88 -8 -103 -14 -41 -16 -57 -14
-57 8 0 23 19 31 69 31 20 0 45 6 56 14 11 7 54 25 95 40 72 26 157 63 210 93
14 8 57 30 95 48 111 53 235 136 235 156 0 14 -52 11 -69 -5 -9 -7 -43 -21
-76 -31 -33 -9 -64 -20 -70 -24 -16 -12 -94 -39 -175 -60 -41 -10 -83 -22 -92
-26 -37 -15 -16 16 40 57 93 69 118 85 156 99 51 19 76 45 76 79 l0 30 -77 -5
c-43 -2 -90 -7 -105 -11 -22 -4 -28 -2 -28 11 0 8 8 18 18 22 31 11 142 78
142 86 0 4 18 23 40 43 22 20 40 42 40 50 0 7 10 19 23 25 30 16 187 180 187
196 0 31 -45 7 -120 -65 -25 -24 -69 -55 -98 -69 -29 -14 -55 -29 -58 -34 -8
-14 -42 -11 -40 4 1 6 34 45 74 86 40 41 72 79 72 84 0 5 18 30 41 54 22 24
54 74 71 111 16 37 40 88 54 114 13 27 24 56 24 65 0 10 16 38 35 62 30 38 34
49 29 79 -6 31 -3 38 40 78 48 47 49 49 46 102 -1 18 5 44 14 57 9 13 16 30
16 38 0 8 15 29 33 48 18 19 44 51 57 72 14 20 32 39 41 42 9 3 29 17 45 31
16 13 39 27 52 30 12 4 22 10 22 16 0 5 9 19 21 31 12 12 39 49 62 82 51 76
200 223 233 231 40 10 157 -78 314 -236 299 -300 538 -419 712 -354 24 9 68
22 98 30 30 8 83 23 118 34 84 27 129 26 137 -1 9 -29 -26 -63 -122 -122 -138
-82 -275 -122 -466 -133 -65 -4 -120 -11 -123 -15 -9 -15 -26 -10 -20 6 8 22
-34 62 -72 69 -29 5 -33 3 -50 -32 -14 -30 -23 -38 -49 -40 -38 -4 -81 22 -94
55 -5 13 -17 26 -26 29 -10 3 -26 10 -35 15 -71 38 -59 -33 25 -148 35 -46 58
-67 101 -87 30 -14 59 -26 65 -26 5 0 56 -15 113 -34 57 -18 146 -41 198 -50
52 -9 131 -22 175 -30 160 -29 417 33 525 127 99 85 115 103 140 160 12 26 48
92 80 148 33 55 60 103 60 105 0 2 11 21 25 42 13 20 37 71 52 112 25 66 28
89 28 190 0 109 -2 119 -33 183 -34 72 -143 240 -241 372 -172 233 -228 375
-218 545 6 100 27 160 110 320 66 128 144 238 186 263 39 23 121 22 194 -2 27
-9 41 -10 51 -2 9 8 29 7 70 -4 45 -12 89 -14 195 -9 75 4 163 7 196 7 69 1
162 -28 176 -55 5 -10 21 -18 34 -18 13 0 27 -5 31 -11 3 -6 19 -9 34 -5 41 8
80 -46 86 -118 3 -38 21 -48 69 -40 22 4 79 8 126 9 79 2 142 16 247 56 37 14
87 10 137 -11 66 -28 75 -26 75 15 0 29 5 37 26 45 24 9 33 5 93 -45 36 -30
91 -77 121 -105 84 -75 102 -61 44 35 -38 62 -46 76 -85 135 -67 104 -114 223
-74 190 8 -7 15 -18 15 -25 0 -20 146 -151 193 -173 73 -35 84 -36 114 -8 18
17 39 26 60 26 32 0 83 -18 83 -29 0 -8 39 -50 67 -75 13 -10 34 -20 48 -22
14 -1 37 -10 51 -19 24 -15 27 -15 44 0 13 12 23 14 37 7 48 -26 104 -40 168
-42 117 -5 195 0 195 12 0 4 9 12 19 18 25 13 72 -6 64 -26 -2 -7 8 -29 24
-49 34 -42 91 -62 125 -44 13 7 18 14 12 16 -16 5 27 92 44 93 17 0 72 -57 72
-75 0 -20 26 -25 78 -16 66 12 124 7 156 -14 31 -21 48 -11 52 31 2 15 12 35
23 45 20 19 21 19 53 -14 81 -82 148 -158 148 -167 0 -6 17 -10 39 -10 22 0
44 -6 51 -15 7 -9 29 -15 52 -15 36 0 75 -9 178 -42 19 -6 56 -12 82 -14 27
-1 54 -9 63 -18 9 -9 23 -17 31 -17 27 -3 32 -4 40 -12 4 -4 18 -7 31 -7 13 0
45 -6 71 -14 26 -7 72 -21 103 -30 49 -14 156 -22 199 -15 35 6 121 -15 134
-32 22 -32 162 -119 191 -119 7 0 20 -8 29 -19 9 -10 41 -29 71 -42 34 -15 55
-30 55 -40 0 -20 67 -51 118 -55 20 -2 40 -3 43 -3 3 -1 14 -19 24 -41 19 -41
29 -49 39 -27 3 6 3 1 0 -13 -5 -20 -4 -23 7 -12 7 6 18 12 24 12 5 0 4 -4 -4
-9 -21 -14 -4 -53 22 -49 12 1 28 -1 35 -5 7 -5 12 -4 12 2 0 6 9 2 20 -9 25
-25 28 -90 4 -90 -23 0 -11 -24 13 -28 23 -3 36 -35 37 -92 1 -25 6 -36 19
-38 12 -2 17 3 17 18 0 12 4 18 10 15 6 -4 8 -11 4 -16 -9 -16 5 -59 19 -59
12 0 32 -37 51 -93 4 -13 12 -16 25 -12 27 8 81 -21 81 -44 0 -10 12 -24 28
-31 22 -11 24 -14 10 -17 -22 -5 -23 -22 -3 -29 25 -10 67 -96 61 -126 -6 -29
-3 -36 59 -158 36 -69 48 -117 60 -225 6 -51 23 -116 24 -91 1 18 2 18 19 3
10 -10 24 -17 30 -17 6 0 9 -7 6 -15 -4 -8 1 -17 9 -21 9 -3 16 -19 16 -37 1
-18 2 -40 2 -49 0 -11 13 -19 42 -24 38 -7 40 -8 17 -15 -24 -7 -24 -7 -2 -8
27 -1 30 -31 3 -31 -12 0 -20 -9 -23 -24 -6 -29 8 -56 27 -56 8 0 15 -7 15
-15 0 -13 4 -14 20 -5 24 13 60 -3 60 -25 0 -19 -56 -21 -63 -2 -2 6 -8 8 -13
4 -5 -4 -4 -11 2 -15 14 -10 38 -136 26 -140 -12 -4 23 -118 42 -138 9 -8 12
-22 9 -30 -3 -9 0 -20 7 -24 10 -6 10 -16 -4 -50 -14 -35 -14 -45 -4 -58 10
-12 10 -16 1 -19 -7 -3 -13 -10 -13 -16 0 -6 -7 -19 -17 -29 -15 -17 -14 -19
15 -29 21 -7 32 -18 32 -30 0 -12 7 -19 20 -19 20 0 29 -35 11 -42 -20 -7 -16
-43 6 -53 12 -5 23 -20 25 -34 3 -24 4 -24 21 -7 17 17 19 17 43 -9 13 -14 36
-49 49 -76 14 -27 30 -49 35 -49 6 0 10 -42 10 -102 1 -76 5 -108 16 -123 12
-16 16 -17 23 -6 9 15 3 48 -10 57 -17 10 -10 44 10 44 29 0 45 -25 31 -50
-11 -21 -5 -60 10 -60 5 0 12 -25 15 -55 7 -49 14 -64 57 -114 6 -8 13 -32 15
-54 4 -53 41 -154 59 -161 8 -3 14 -12 14 -20 0 -8 5 -27 12 -43 6 -15 12 -44
13 -63 5 -100 17 -185 28 -192 12 -7 14 -19 23 -160 3 -49 10 -88 15 -88 6 0
9 -6 8 -12 -2 -7 2 -31 8 -53 6 -22 16 -71 22 -110 28 -176 44 -283 46 -316 1
-20 4 -40 7 -45 3 -5 8 -38 12 -74 4 -36 13 -103 21 -150 8 -47 17 -137 20
-200 8 -177 15 -239 35 -320 10 -41 30 -147 45 -235 14 -88 33 -189 42 -225
14 -54 17 -130 17 -455 1 -404 -1 -427 -49 -695 -8 -47 -22 -148 -31 -225 -8
-77 -19 -144 -23 -150 -8 -11 -26 -86 -36 -150 -3 -22 -17 -78 -30 -125 -14
-47 -36 -152 -50 -235 -25 -149 -28 -171 -41 -315 -4 -41 -11 -83 -16 -93 -8
-15 -11 -16 -23 -3 -8 8 -15 21 -15 30 0 8 -4 18 -10 21 -15 10 -12 35 5 35
18 0 20 16 3 26 -6 4 -16 0 -23 -9 -17 -24 -25 -21 -25 8 0 14 -4 25 -9 25
-11 0 -16 16 -26 73 -5 31 -10 37 -30 37 -26 0 -34 15 -12 23 6 3 7 6 1 6 -5
1 -19 -6 -30 -14 -17 -13 -17 -14 -1 -15 11 0 17 -8 17 -24 0 -19 -6 -25 -30
-28 -27 -4 -30 -2 -30 24 0 15 -4 28 -10 28 -5 0 -10 -4 -10 -8 0 -5 -18 -28
-40 -52 -28 -30 -40 -53 -41 -74 0 -17 -3 -25 -6 -18 -11 28 -23 9 -23 -38 0
-47 -2 -50 -25 -50 -18 0 -25 -5 -25 -20 0 -11 -4 -20 -8 -20 -17 0 -31 -47
-19 -59 9 -9 8 -15 -6 -23 -17 -9 -18 -10 -1 -23 16 -11 14 -13 -19 -17 -34
-4 -38 -1 -43 21 -15 66 -15 66 -32 38 -9 -15 -20 -27 -24 -27 -5 0 -8 -7 -8
-15 0 -8 -4 -15 -10 -15 -5 0 -10 -20 -10 -44 0 -25 5 -48 10 -51 12 -8 13
-65 1 -65 -5 0 -7 -8 -4 -18 2 -10 -3 -24 -11 -31 -10 -8 -16 -29 -16 -52 0
-21 -7 -45 -16 -54 -14 -13 -15 -21 -5 -41 15 -33 14 -44 -4 -44 -9 0 -15 -9
-15 -24 0 -14 -5 -37 -11 -53 -6 -15 -15 -50 -19 -78 -5 -27 -13 -70 -20 -94
-9 -38 -8 -45 7 -57 17 -12 16 -13 -9 -14 -27 0 -28 -2 -28 -49 0 -30 5 -51
13 -54 8 -4 9 -8 1 -14 -6 -4 -14 -17 -17 -27 -6 -16 -5 -17 8 -6 12 10 19 10
27 2 9 -9 9 -12 0 -12 -7 0 -12 -6 -12 -14 0 -8 -6 -17 -12 -19 -10 -4 -10 -6
0 -6 6 -1 12 -11 12 -22 0 -18 5 -21 30 -17 27 4 30 2 30 -20 0 -14 -7 -34
-17 -44 -15 -17 -15 -18 3 -18 18 -1 18 -1 2 -11 -22 -13 -24 -74 -3 -95 21
-21 19 -51 -5 -64 -22 -12 -27 -45 -7 -57 13 -8 17 -93 5 -93 -5 0 -8 -13 -8
-29 0 -16 -6 -32 -12 -35 -10 -5 -10 -7 0 -12 15 -7 6 -95 -14 -135 -7 -14
-10 -36 -7 -47 3 -13 1 -22 -6 -22 -6 0 -11 -9 -11 -20 0 -11 -4 -20 -10 -20
-5 0 -10 9 -10 20 0 11 -4 20 -10 20 -5 0 -10 9 -10 20 0 11 -6 20 -14 20 -9
0 -12 8 -9 24 3 13 0 27 -6 30 -6 4 -11 22 -11 41 0 19 -4 37 -10 40 -5 3 -10
30 -10 59 0 44 -4 56 -22 68 -20 14 -21 17 -8 33 13 16 12 17 -5 14 -11 -3
-21 -13 -23 -24 -2 -11 -7 -29 -12 -40 -12 -27 -30 -210 -35 -353 -2 -65 -9
-131 -15 -147 -7 -17 -11 -67 -11 -113 1 -54 -2 -82 -9 -82 -6 0 -10 -6 -9
-12 3 -15 -19 -95 -32 -120 -14 -28 -11 -81 7 -106 15 -21 15 -25 -1 -42 -9
-10 -14 -24 -10 -29 3 -6 3 -17 -1 -23 -5 -7 -9 -19 -11 -28 -10 -61 -33 -142
-51 -178 -16 -34 -19 -49 -11 -70 20 -53 -12 -129 -60 -140 -30 -6 -62 -36
-60 -56 0 -12 1 -27 0 -33 -1 -14 -37 -18 -45 -5 -3 5 -7 54 -10 110 -2 55 -7
105 -9 110 -5 7 -13 89 -23 227 -2 28 -6 119 -9 204 -4 94 -11 166 -19 186 -8
17 -17 61 -20 96 -8 77 -63 259 -83 275 -8 7 -24 9 -36 7 -24 -6 -66 -51 -67
-70 0 -7 -10 -13 -22 -13 -20 0 -20 -1 -5 -18 10 -10 17 -28 17 -40 0 -12 3
-22 8 -22 4 0 7 -18 7 -40 1 -22 0 -40 -2 -40 -10 0 -83 82 -83 94 0 7 -7 16
-14 19 -8 3 -20 24 -26 46 -6 22 -17 47 -25 55 -8 8 -15 19 -15 25 0 6 -27 32
-59 57 -33 26 -79 73 -103 106 l-43 59 -56 -6 c-52 -6 -58 -5 -77 19 -22 29
-57 34 -83 11 -20 -19 -60 -12 -84 15 -16 17 -43 17 -55 -1 -3 -4 -13 -9 -24
-11 -28 -5 -56 41 -66 109 -4 33 -13 69 -18 79 -5 10 -15 31 -21 47 -9 23 -16
27 -50 27 -24 0 -46 -7 -57 -17 -15 -16 -17 -16 -30 2 -8 10 -14 22 -14 26 0
5 -15 15 -32 24 -39 18 -77 83 -57 96 10 6 10 11 0 23 -8 9 -19 16 -26 16 -7
0 -23 13 -36 30 -13 16 -29 30 -35 30 -6 0 -15 19 -20 43 -8 38 -12 42 -41 45
-25 2 -33 -1 -33 -12 0 -9 -4 -16 -10 -16 -26 0 -4 -82 29 -107 14 -11 11 -12
-15 -13 -33 0 -60 22 -49 39 10 17 -5 78 -25 99 -11 12 -17 28 -13 40 2 11 0
23 -6 26 -18 11 -13 32 18 78 28 42 34 62 32 104 -1 23 -33 43 -39 25 -2 -6
-21 -11 -43 -11 -40 0 -44 6 -39 53 2 27 52 95 73 103 13 4 17 12 14 25 -3 10
-1 19 4 19 5 0 9 6 9 14 0 7 7 19 15 26 22 18 19 84 -5 112 -11 12 -31 40 -44
60 l-25 37 20 25 c36 46 62 31 61 -35 -1 -33 3 -40 23 -45 23 -6 81 19 98 41
9 13 46 -33 47 -57 0 -10 5 -18 10 -18 6 0 10 -8 10 -17 1 -33 34 -60 84 -67
34 -5 46 -4 41 3 -3 6 3 24 14 40 12 16 21 34 21 40 0 15 80 3 101 -15 8 -8
19 -14 23 -14 4 0 21 -13 39 -30 18 -16 35 -30 39 -30 11 0 102 -91 123 -122
9 -16 23 -28 30 -28 7 0 25 -17 41 -37 15 -21 37 -44 48 -52 11 -8 28 -23 38
-33 10 -10 24 -18 32 -18 17 0 26 45 16 79 -5 14 -16 51 -25 81 -9 30 -30 74
-45 97 -16 23 -38 70 -50 105 -37 107 -78 204 -95 228 -18 25 -46 91 -50 120
-1 8 -12 56 -24 106 -19 80 -27 96 -68 140 -25 27 -62 74 -82 104 -35 54 -88
116 -144 168 -16 15 -48 46 -72 70 -24 23 -50 42 -58 42 -8 0 -17 7 -21 15 -3
8 -17 20 -31 25 -14 5 -25 16 -25 24 0 8 -13 16 -29 18 -17 2 -28 1 -25 -4 8
-13 -58 -9 -86 5 -13 7 -27 23 -30 36 -3 16 -16 28 -35 34 -16 6 -36 16 -43
24 -7 7 -20 13 -28 13 -8 0 -14 7 -14 15 0 8 -9 15 -20 15 -11 0 -20 5 -20 10
0 6 -5 10 -10 10 -6 0 -29 17 -51 38 -22 20 -54 45 -72 55 -30 16 -32 16 -38
0 -6 -19 -4 -31 13 -73 20 -49 41 -85 63 -110 12 -14 24 -32 27 -40 3 -8 31
-53 63 -100 31 -47 59 -92 60 -100 8 -35 48 -96 86 -132 l41 -39 -7 -73 c-3
-40 -13 -86 -21 -101 -19 -36 -18 -51 5 -67 27 -19 35 -53 16 -68 -21 -18 -33
-4 -44 51 -5 24 -9 34 -10 22 -1 -20 -4 -21 -25 -11 -14 6 -30 23 -36 39 -26
63 -57 59 -86 -10 -16 -37 -30 -51 -54 -51 -19 0 -46 40 -33 49 18 11 22 52 7
58 -8 3 -14 12 -14 19 0 8 -7 17 -15 20 -8 4 -15 12 -15 20 0 29 -34 7 -64
-41 -26 -39 -103 -135 -130 -160 -11 -11 -48 -33 -81 -50 -56 -28 -125 -86
-125 -105 0 -4 -13 -13 -29 -18 -17 -6 -50 -38 -84 -84 -52 -68 -88 -98 -121
-98 -7 0 -22 -11 -35 -26 -14 -17 -28 -23 -40 -19 -12 3 -34 -4 -56 -20 -21
-14 -43 -25 -50 -25 -7 0 -19 -7 -26 -16 -11 -13 -26 -15 -70 -11 -42 4 -67 0
-98 -14 -40 -18 -42 -20 -35 -54 5 -27 2 -41 -11 -55 -24 -27 -34 -25 -75 10
-19 16 -38 30 -42 30 -4 0 -15 17 -24 38 -19 41 -143 166 -187 188 -58 30
-211 74 -258 74 -49 0 -168 -28 -207 -49 -11 -6 -30 -11 -41 -11 -12 0 -30 -9
-41 -20 -11 -11 -24 -20 -30 -20 -5 0 -10 -4 -10 -9 0 -5 -13 -14 -29 -21 -16
-6 -40 -23 -53 -37 -27 -30 -70 -53 -96 -53 -10 0 -27 -6 -37 -14 -32 -23 -5
-65 78 -117 82 -52 136 -70 209 -71 48 0 54 3 85 41 24 29 47 44 76 51 46 12
68 20 142 55 106 51 215 67 286 44 46 -15 139 -79 139 -95 0 -13 28 -64 66
-121 37 -55 39 -105 6 -176 -41 -90 -72 -170 -72 -188 0 -8 -5 -20 -10 -25
-17 -17 -40 -148 -41 -236 -1 -150 -2 -148 36 -182 24 -23 36 -44 41 -74 11
-72 55 -94 81 -42 6 14 20 43 31 65 10 22 33 66 50 97 23 40 32 71 32 102 0
25 4 47 9 50 4 3 9 27 10 53 2 89 26 153 75 202 41 41 49 45 93 45 70 -1 121
-20 138 -55 9 -16 39 -53 68 -82 29 -28 61 -70 71 -92 37 -83 62 -126 89 -154
15 -17 27 -32 27 -35 0 -3 14 -25 30 -50 21 -31 42 -48 68 -57 20 -6 40 -17
44 -22 8 -13 34 -20 75 -19 17 0 34 -5 36 -13 3 -8 15 -11 31 -8 21 4 26 1 26
-15 0 -31 -19 -74 -29 -67 -13 7 -24 -30 -16 -55 4 -13 15 -20 31 -20 28 0 74
-27 74 -44 0 -6 30 -33 65 -59 36 -26 65 -51 65 -56 0 -4 26 -5 58 -3 62 4
115 -14 139 -48 8 -11 33 -20 70 -25 70 -9 83 -15 105 -52 19 -32 11 -58 -12
-43 -8 6 -27 10 -42 10 -16 0 -28 4 -28 9 0 9 -54 33 -80 35 -8 0 -14 8 -13
16 2 12 -6 15 -32 15 -39 -2 -75 18 -75 41 0 15 -9 17 -85 16 -47 -1 -124 20
-152 41 -8 6 -31 4 -63 -4 -45 -11 -57 -11 -105 6 -42 14 -70 17 -126 12 -40
-3 -77 -11 -83 -17 -5 -5 -19 -10 -30 -10 -23 0 -92 -22 -102 -33 -4 -4 -15
-7 -24 -7 -8 0 -40 -16 -70 -35 -30 -20 -66 -38 -80 -42 -14 -3 -44 -19 -68
-34 -24 -16 -46 -29 -51 -29 -4 0 -26 -16 -50 -36 -62 -54 -109 -56 -187 -11
-33 20 -73 39 -90 43 -16 4 -60 20 -99 36 -59 25 -83 29 -154 29 -92 -1 -144
-12 -194 -40 -17 -11 -52 -22 -77 -26 -25 -3 -74 -17 -110 -29 -36 -13 -99
-31 -140 -40 -68 -15 -106 -30 -165 -64 -11 -6 -47 -18 -80 -27 -33 -10 -69
-21 -80 -26 -45 -19 -175 -59 -194 -59 -27 0 -184 -60 -275 -106 -55 -27 -81
-34 -127 -34 -55 0 -59 2 -75 32 -10 19 -14 44 -11 64 4 25 0 39 -19 61 -14
15 -28 41 -31 56 l-6 28 -23 -22 c-13 -12 -24 -28 -24 -36 0 -7 -4 -13 -9 -13
-5 0 -12 -11 -15 -25 -13 -53 -79 -53 -92 0 -7 29 -33 33 -70 9 -23 -15 -26
-15 -44 1 -27 24 -60 13 -90 -31 -32 -47 -60 -121 -60 -157 0 -15 -7 -44 -15
-64 -8 -19 -15 -60 -15 -90 0 -50 -22 -112 -42 -121 -13 -6 -9 -42 8 -67 l16
-25 46 45 c36 36 52 45 79 45 21 0 47 10 66 24 18 13 42 27 55 31 12 3 22 10
22 15 0 4 15 15 33 23 39 19 129 16 293 -9 132 -20 293 -13 434 18 116 25 263
40 435 43 135 3 216 12 225 26 16 23 295 3 414 -30 43 -12 61 -22 67 -38 5
-13 12 -23 16 -24 5 0 17 -2 27 -4 38 -7 126 -8 133 -2 3 4 0 7 -8 7 -11 0
-11 2 1 10 8 5 22 7 32 4 9 -2 19 0 23 6 10 16 84 12 114 -6 22 -13 26 -22 23
-45 l-4 -29 56 0 c40 0 61 5 74 17 9 10 30 24 45 31 33 14 183 16 192 2 3 -5
23 -10 44 -10 30 0 40 -4 44 -20 4 -17 13 -20 49 -19 46 1 139 -30 168 -56 9
-8 22 -15 28 -15 18 0 82 33 82 42 0 14 19 9 58 -15 20 -13 49 -27 65 -31 26
-6 28 -11 31 -61 1 -17 7 -20 50 -18 27 1 52 6 55 11 3 5 31 12 61 15 30 4 56
11 58 17 2 5 10 10 18 10 8 0 17 6 20 14 4 12 12 13 32 5 36 -14 132 -1 132
18 0 11 8 13 33 8 17 -4 36 -11 41 -15 17 -16 -3 -39 -41 -46 -44 -7 -151 -64
-190 -100 -15 -14 -32 -23 -39 -20 -6 2 -22 -6 -35 -20 -25 -26 -48 -31 -67
-12 -10 10 -15 10 -21 -1 -7 -10 -13 -11 -30 -2 -28 15 -64 -10 -85 -59 -12
-29 -24 -39 -73 -57 -58 -21 -109 -36 -128 -38 -5 0 -16 -4 -23 -9 -8 -4 -41
-8 -75 -8 -41 0 -73 -6 -94 -18 -31 -18 -56 -19 -138 -6 -34 6 -44 3 -69 -18
-16 -14 -45 -28 -65 -31 -20 -4 -56 -16 -79 -27 -36 -17 -67 -21 -170 -23 -70
-1 -154 -8 -188 -14 -40 -7 -78 -8 -110 -2 -63 12 -194 -8 -194 -29 0 -5 12
-18 28 -29 54 -41 53 -39 35 -76 -13 -28 -24 -36 -65 -45 -29 -8 -56 -21 -67
-36 -18 -23 -19 -27 -3 -54 14 -25 15 -31 2 -54 -7 -15 -24 -29 -37 -32 -21
-6 -23 -12 -23 -65 0 -54 3 -60 31 -81 19 -14 41 -22 59 -20 15 2 31 -1 35 -7
3 -6 15 -11 25 -11 10 0 28 -13 39 -28 19 -27 75 -52 117 -52 11 0 27 9 37 20
14 16 29 20 81 20 63 0 65 1 96 40 24 30 39 40 61 40 19 0 29 -5 29 -15 0 -18
27 -24 98 -22 29 0 56 -4 60 -10 4 -6 24 -20 45 -32 33 -19 40 -19 60 -7 12 8
37 17 55 21 38 8 65 53 76 127 8 51 16 61 39 52 16 -6 31 -55 42 -139 9 -59
28 -85 65 -85 31 0 70 45 47 53 -9 4 -9 7 1 18 6 7 12 23 12 35 0 12 9 33 20
47 11 14 20 29 20 34 0 4 18 19 40 33 33 20 40 30 40 55 0 17 5 36 11 42 6 6
11 27 11 47 0 41 9 50 39 41 16 -5 18 -9 9 -15 -11 -7 -10 -12 3 -25 10 -9 22
-25 27 -36 13 -24 91 -27 110 -4 7 8 20 15 29 15 25 1 47 22 55 52 3 16 10 28
14 28 4 0 6 20 4 43 -4 42 -2 46 40 76 23 17 44 28 46 22 3 -10 53 0 92 18 23
11 60 74 60 101 0 6 9 10 19 10 16 0 21 10 27 48 6 43 33 82 56 82 4 0 8 6 8
14 0 8 9 17 19 21 32 10 70 44 86 78 20 42 91 129 119 144 11 7 33 12 47 13
18 0 42 15 72 44 24 24 68 56 96 70 45 24 56 25 91 16 21 -6 42 -15 45 -20 3
-5 25 -19 48 -30 23 -12 58 -30 77 -40 19 -11 47 -20 62 -20 14 0 28 -4 30
-10 2 -5 22 -11 45 -12 37 -1 45 -6 69 -42 21 -30 28 -53 27 -86 -1 -85 -1
-95 0 -192 1 -90 -1 -99 -23 -123 -18 -19 -21 -28 -12 -34 15 -9 -3 -71 -25
-84 -7 -5 -13 -25 -13 -48 l0 -41 -40 7 c-32 5 -40 4 -40 -8 0 -8 -7 -17 -15
-21 -21 -8 -19 -44 3 -49 16 -4 16 -5 0 -6 -19 -1 -61 -78 -52 -93 3 -5 -4
-29 -15 -53 -12 -25 -21 -51 -21 -60 0 -8 -8 -33 -17 -56 -13 -34 -14 -51 -6
-91 8 -40 7 -51 -3 -55 -9 -3 -12 -14 -8 -30 5 -19 2 -25 -15 -30 -11 -3 -21
-10 -21 -15 0 -5 -12 -8 -27 -6 -23 3 -30 -4 -52 -47 -20 -41 -24 -62 -23
-119 2 -44 8 -73 16 -80 32 -26 38 -181 12 -311 -5 -22 -36 -85 -36 -72 0 4
-16 -11 -36 -33 -20 -22 -43 -40 -50 -40 -8 0 -19 -9 -26 -20 -7 -11 -21 -20
-30 -20 -14 0 -18 -8 -18 -33 0 -32 -20 -71 -50 -94 -23 -19 -75 -16 -94 6
-15 16 -23 18 -46 10 -16 -6 -31 -20 -34 -32 -3 -12 -19 -30 -35 -40 -19 -11
-34 -31 -40 -52 -5 -19 -25 -48 -44 -64 -28 -25 -36 -41 -41 -80 -4 -28 -10
-53 -15 -55 -5 -3 -11 -20 -15 -37 -5 -28 -46 -93 -46 -74 0 5 -9 0 -19 -9
-11 -10 -17 -24 -14 -32 3 -8 0 -14 -5 -14 -6 0 -21 -21 -34 -46 -12 -26 -32
-50 -43 -55 -11 -5 -42 -23 -70 -39 -27 -17 -57 -33 -66 -36 -8 -3 -24 -22
-35 -42 -25 -48 -39 -58 -96 -72 -25 -7 -64 -26 -85 -45 -22 -19 -56 -36 -79
-41 -59 -10 -69 -18 -100 -80 -26 -51 -64 -94 -85 -94 -4 0 -10 8 -13 18 -4
10 -14 27 -24 38 -9 10 -32 42 -49 69 -67 104 -84 123 -119 130 -39 7 -58 -1
-50 -20 7 -20 -50 -41 -69 -25 -8 7 -15 18 -15 26 0 7 -7 20 -17 29 -31 31
-125 -3 -137 -49 -6 -23 -36 -45 -36 -26 0 15 -24 12 -72 -9 -28 -13 -59 -39
-91 -79 -34 -43 -59 -64 -85 -72 -34 -11 -122 -91 -122 -112 0 -4 -7 -8 -15
-8 -8 0 -15 -4 -15 -10 0 -25 -81 -7 -118 27 -7 7 -22 13 -32 13 -24 0 -80
-32 -80 -46 0 -14 -55 -11 -73 4 -8 7 -17 8 -21 4 -4 -4 -20 -8 -34 -9 -15 -1
-43 -5 -63 -9 -26 -4 -49 0 -82 15 -48 22 -73 26 -79 13 -6 -14 -72 -50 -105
-57 -17 -3 -37 -13 -44 -21 -24 -29 -119 -9 -174 37 -20 17 -134 59 -159 59
-7 0 -24 9 -37 21 -13 12 -69 51 -124 87 -55 37 -101 69 -103 73 -2 4 -27 19
-56 33 -29 15 -73 43 -97 64 -24 20 -66 48 -94 62 -27 13 -63 34 -78 47 -15
12 -55 35 -87 50 -33 15 -60 31 -60 35 0 4 -9 8 -20 8 -13 0 -20 -7 -20 -19 0
-20 -1 -19 -40 1 -22 12 -40 28 -40 35 0 7 -4 13 -8 13 -5 0 -15 18 -22 41 -8
22 -23 47 -34 55 -23 16 -60 19 -51 4 3 -5 2 -17 -3 -26 -8 -14 -11 -13 -28 7
-23 27 -57 49 -78 49 -8 0 -23 -11 -34 -25 -17 -21 -25 -24 -53 -18 -19 3 -46
14 -61 24 -14 11 -29 19 -32 19 -15 0 -96 63 -101 80 -3 11 -21 29 -38 41 -18
12 -38 29 -45 38 -10 12 -33 16 -97 17 -62 1 -91 6 -107 18 -13 9 -50 34 -83
56 -33 22 -76 55 -96 74 -21 19 -63 42 -98 54 -58 20 -101 48 -161 107 -14 14
-41 33 -60 43 -80 41 -168 107 -190 141 -21 34 -105 96 -229 169 -31 18 -64
42 -74 54 -10 12 -41 36 -69 54 -55 35 -95 37 -131 6 -16 -15 -18 -14 -24 6
-3 13 -19 26 -39 34 -19 7 -34 16 -34 22 0 5 -2 7 -5 4 -3 -3 -32 20 -63 51
-32 31 -74 68 -93 83 -47 35 -83 65 -131 111 -22 20 -66 53 -98 72 -32 19 -61
42 -64 50 -3 8 -12 15 -20 15 -8 0 -27 15 -43 33 -15 17 -42 41 -58 51 -17 11
-36 28 -43 38 -13 18 -52 25 -52 9 0 -5 10 -21 22 -36 13 -14 38 -45 57 -68
46 -56 416 -423 515 -512 93 -83 256 -243 256 -251 0 -13 98 -132 155 -188
115 -113 132 -126 220 -176 37 -21 52 -33 144 -120 142 -134 230 -212 264
-234 29 -20 124 -107 202 -186 6 -5 21 -20 34 -32 13 -13 56 -54 95 -93 107
-103 228 -208 357 -309 63 -50 117 -95 121 -100 14 -22 223 -163 296 -200 28
-14 52 -30 52 -35 0 -5 14 -14 30 -21 17 -7 34 -18 38 -24 8 -12 107 -66 122
-66 11 0 99 -42 184 -89 72 -40 265 -120 396 -166 116 -40 213 -77 260 -100
77 -37 117 -58 150 -80 35 -24 104 -53 149 -61 13 -3 32 -16 43 -29 10 -13 29
-27 41 -31 28 -8 190 -100 241 -136 21 -16 45 -28 52 -28 7 0 14 -4 16 -8 2
-5 24 -23 51 -41 26 -17 47 -36 47 -41 0 -6 6 -10 13 -10 6 0 30 -14 51 -30
22 -17 45 -30 51 -30 6 0 22 -11 34 -24 12 -13 39 -26 59 -30 28 -4 56 -24
117 -81 44 -41 88 -78 98 -81 9 -3 17 -9 17 -13 0 -5 21 -16 48 -26 66 -25
112 -54 112 -72 0 -9 6 -13 14 -10 10 4 12 0 8 -16 -5 -21 -5 -21 21 -4 29 19
57 22 57 7 0 -6 14 -24 30 -40 17 -16 30 -34 30 -40 0 -5 5 -10 10 -10 6 0 10
9 10 20 0 11 5 20 10 20 6 0 10 -4 10 -10 0 -5 6 -10 13 -10 21 0 47 -33 48
-61 1 -15 3 -18 6 -7 2 9 18 21 35 27 26 9 29 13 18 26 -10 12 -10 15 4 15 9
0 16 8 16 18 0 27 45 49 65 32 8 -7 15 -9 15 -5 0 5 9 0 19 -9 22 -20 30 -54
32 -144 3 -72 12 -86 70 -103 26 -8 38 -17 35 -26 -4 -10 6 -13 40 -13 l46 0
-4 -39 c-2 -22 0 -37 4 -35 5 3 8 13 8 22 0 10 11 29 25 44 14 15 25 32 25 38
0 5 4 10 9 10 5 0 9 25 10 56 0 31 4 61 9 68 5 6 15 33 23 60 9 31 25 58 45
75 17 14 37 36 43 49 6 12 18 22 26 22 18 0 20 -37 3 -42 -8 -3 -1 -12 15 -22
37 -25 77 -15 77 19 0 13 5 27 11 31 6 3 9 17 6 30 -2 13 1 28 7 33 17 14 20
142 4 153 -9 6 -6 7 8 3 24 -6 43 23 23 35 -8 5 -6 16 5 38 9 17 16 45 16 62
0 17 7 38 15 46 9 10 15 35 15 67 0 29 0 68 1 87 0 19 0 67 0 105 -1 74 17
141 56 214 12 24 23 52 23 61 0 10 12 33 28 53 15 19 33 43 40 53 9 14 14 16
18 6 3 -7 12 -18 19 -25 17 -17 30 -78 18 -86 -5 -3 -14 -23 -20 -44 -11 -36
-10 -39 12 -49 31 -14 55 -4 55 22 0 11 8 24 18 27 9 4 20 11 24 17 5 8 10 8
18 0 12 -12 4 -80 -11 -90 -12 -7 -11 -44 1 -44 6 0 10 -7 10 -15 0 -8 -4 -15
-9 -15 -5 0 -11 -31 -13 -69 -2 -48 0 -67 8 -64 23 8 48 -106 49 -214 0 -57 2
-103 5 -103 3 0 5 -18 5 -40 0 -22 -3 -40 -7 -40 -15 0 -8 -77 7 -90 19 -16
20 -50 1 -50 -10 0 -12 -12 -8 -50 3 -30 1 -50 -6 -50 -9 0 -23 -103 -22 -160
2 -105 5 -115 28 -118 19 -3 22 1 22 27 0 17 4 31 8 31 5 0 19 9 32 20 25 22
40 26 40 10 0 -5 9 -10 20 -10 18 0 20 -7 20 -60 0 -46 3 -60 15 -60 23 0 6
-29 -26 -46 -27 -14 -29 -18 -29 -77 0 -65 19 -120 21 -62 l1 30 9 -30 c6 -16
7 -69 4 -118 -5 -74 -3 -94 14 -132 11 -25 16 -45 10 -45 -5 0 -9 -9 -9 -21 0
-29 -18 -59 -36 -59 -12 0 -12 -4 2 -33 22 -43 24 -44 34 -27 8 13 10 12 10
-2 0 -10 5 -18 10 -18 11 0 13 29 11 130 -2 57 1 68 23 92 33 35 37 95 6 100
-20 3 -19 4 5 39 15 20 37 42 50 49 35 19 44 51 49 178 3 64 10 132 15 150 5
18 11 81 12 140 1 65 8 118 16 135 12 24 12 27 -3 27 -15 0 -16 2 -2 18 17 19
36 100 42 184 6 72 43 275 58 308 5 14 12 54 14 90 3 42 9 69 19 76 8 6 15 19
15 28 0 10 8 16 23 16 22 0 23 3 19 64 -3 52 -1 67 14 83 12 12 20 37 22 68 4
56 21 105 38 105 7 0 9 10 6 25 -4 21 0 25 19 25 22 0 22 0 3 15 -12 9 -14 14
-6 15 8 0 27 14 43 31 16 18 32 29 36 25 4 -3 6 -42 6 -86 -1 -44 3 -82 8 -86
5 -3 9 -32 9 -65 0 -33 4 -59 10 -59 6 0 10 25 10 56 0 33 4 53 10 49 5 -3 19
-1 30 5 13 7 20 7 20 0 0 -5 18 -10 40 -10 38 0 40 -2 40 -30 0 -35 29 -43 37
-10 3 11 9 20 14 20 5 0 9 18 9 40 0 22 5 40 10 40 6 0 10 -21 10 -46 0 -38 5
-51 30 -74 16 -15 30 -37 30 -47 0 -11 11 -29 25 -41 14 -12 25 -29 25 -37 0
-19 36 -20 44 0 3 8 16 15 28 14 21 0 21 -1 4 -8 -18 -7 -16 -11 21 -48 l41
-41 -19 -28 c-23 -35 -24 -44 -3 -44 13 0 15 -7 9 -41 l-7 -42 28 27 c16 14
33 26 39 25 5 0 4 -3 -2 -6 -7 -2 -13 -13 -13 -23 0 -11 -9 -24 -20 -30 -11
-6 -20 -20 -20 -31 0 -18 -1 -19 -24 -4 -23 15 -25 15 -29 -2 -3 -10 -5 -1 -6
19 0 20 3 40 9 43 6 3 10 15 10 26 0 10 -4 19 -10 19 -5 0 -10 -9 -10 -20 0
-11 -3 -20 -6 -20 -14 0 -33 36 -34 62 0 15 -4 29 -9 32 -15 9 -21 -21 -14
-69 4 -35 10 -45 24 -45 23 0 26 -35 4 -44 -23 -8 -18 -23 11 -30 16 -4 25
-13 23 -24 -3 -35 1 -62 11 -62 6 0 10 12 11 28 0 26 1 26 11 5 13 -26 3 -74
-15 -70 -14 2 -17 -35 -3 -45 5 -4 4 -19 -5 -40 -7 -18 -12 -39 -11 -45 2 -7
-2 -13 -8 -13 -5 0 -10 -13 -10 -30 0 -16 5 -30 10 -30 6 0 10 -7 10 -15 0 -8
-4 -15 -10 -15 -5 0 -10 -7 -10 -15 0 -18 4 -18 47 -3 33 12 33 13 33 76 l0
64 27 -17 c18 -12 28 -14 31 -7 7 22 22 12 22 -13 0 -23 2 -24 20 -15 11 6 25
8 30 5 13 -8 13 1 -2 26 -10 16 -10 23 -1 26 8 3 10 71 7 261 -2 141 -6 507
-9 813 -3 306 -10 603 -15 660 -5 57 -12 176 -15 264 -9 250 -34 597 -47 651
-15 64 -13 141 4 179 14 32 81 148 133 230 17 28 104 195 192 372 89 176 177
346 197 376 41 66 200 371 211 407 4 14 34 78 66 144 63 127 159 413 178 531
6 39 18 124 26 190 8 66 21 156 29 200 7 44 19 143 25 220 21 241 26 276 91
590 81 393 125 681 139 911 15 233 13 223 91 419 45 113 102 288 145 445 21
74 50 178 65 230 15 52 33 127 40 165 7 39 18 81 25 95 7 14 15 50 19 80 8 68
27 153 76 335 39 146 47 183 55 275 3 30 10 96 16 145 13 98 5 305 -11 315 -6
4 -13 70 -17 147 -6 134 -5 142 15 168 27 34 41 85 40 150 0 62 22 119 63 158
31 29 31 31 18 69 -15 47 -4 88 28 103 28 12 31 20 39 103 4 37 13 82 20 101
14 33 15 33 34 16 20 -18 20 -17 20 66 0 131 30 220 92 277 18 16 85 79 148
139 63 60 133 122 155 138 103 76 173 147 195 198 13 29 37 70 55 92 38 48 89
196 105 309 8 53 10 141 5 265 -4 112 -3 196 3 211 10 27 -7 76 -39 115 -9 11
-22 30 -28 42 -11 22 -11 23 36 16 33 -4 61 -16 88 -38 22 -18 59 -42 82 -54
56 -28 74 -49 116 -134 49 -99 61 -170 54 -330 -7 -172 -41 -266 -131 -359
-29 -31 -40 -48 -30 -48 26 0 120 104 159 177 52 98 75 208 75 373 0 74 -4
150 -9 168 -6 18 -30 56 -55 83 -25 28 -46 60 -46 71 0 18 4 19 37 13 45 -8
86 -28 134 -66 20 -16 40 -29 43 -29 14 0 4 43 -18 78 -29 45 -172 184 -281
272 -131 105 -325 290 -331 317 -9 34 2 40 39 20 102 -53 184 -70 207 -42 11
13 14 13 24 1 6 -8 38 -22 71 -32 73 -20 102 -35 163 -80 129 -97 191 -185
228 -324 9 -36 26 -80 36 -99 12 -21 17 -44 13 -59 -8 -34 3 -62 26 -62 23 0
26 37 5 78 -7 15 -17 68 -20 117 -8 98 -18 134 -51 180 -12 17 -29 44 -38 60
-24 45 -114 137 -182 186 -68 48 -159 128 -188 165 -15 20 -17 28 -7 39 16 20
22 19 50 -5 26 -22 50 -26 67 -9 15 15 100 -13 183 -62 76 -44 290 -252 345
-335 44 -66 105 -202 105 -236 1 -22 1 -22 12 -4 20 35 -9 169 -58 271 -58
118 -68 132 -142 201 -86 80 -307 233 -412 286 -30 15 -77 46 -105 69 -27 23
-70 55 -95 72 -52 35 -90 71 -90 87 0 28 -38 81 -103 145 -97 94 -145 150
-165 191 -8 19 -19 34 -24 34 -13 0 -70 121 -64 136 3 8 12 14 19 14 15 0 28
-23 49 -83 7 -21 26 -49 43 -61 16 -13 66 -58 110 -100 43 -42 83 -76 87 -76
4 0 8 -6 8 -14 0 -7 11 -38 24 -68 27 -61 123 -155 166 -164 14 -3 39 -12 55
-21 17 -9 47 -19 68 -23 32 -6 37 -5 35 9 -2 8 -18 25 -37 36 -18 11 -54 38
-80 61 -25 22 -66 54 -91 71 -67 45 -107 90 -141 158 -16 33 -36 71 -44 85 -8
14 -12 35 -8 47 3 14 -2 34 -13 51 -11 15 -30 50 -44 77 -20 40 -31 51 -55 55
-26 5 -31 12 -52 75 -13 39 -30 84 -38 102 -33 69 -7 85 44 28 17 -20 31 -40
31 -45 0 -6 0 -12 0 -15 2 -26 58 -117 100 -163 29 -31 70 -91 91 -133 45 -91
113 -168 216 -245 40 -30 109 -85 152 -122 43 -37 113 -92 156 -122 43 -30 97
-70 122 -88 52 -38 205 -112 233 -112 10 0 47 -7 82 -15 87 -20 212 -30 203
-16 -3 6 -11 11 -16 11 -11 0 -69 39 -84 57 -5 6 -39 19 -75 28 -64 17 -157
62 -179 89 -6 8 -38 24 -71 36 -50 19 -80 44 -67 56 2 2 25 7 51 10 50 7 108
-7 161 -38 19 -12 50 -18 88 -18 31 0 57 -4 57 -10 0 -5 12 -10 28 -10 16 0
32 -8 40 -20 9 -15 23 -20 52 -20 44 0 52 13 19 31 -14 7 -19 17 -16 30 4 15
0 19 -18 19 -13 0 -27 -5 -30 -10 -4 -6 -16 -8 -28 -4 -23 7 -90 54 -95 67 -2
4 -13 7 -25 7 -24 0 -83 20 -107 35 -8 5 -42 10 -75 11 -81 2 -142 20 -167 50
-12 13 -26 24 -31 24 -11 0 -157 152 -157 163 0 5 -6 14 -12 22 -7 7 -29 32
-48 55 -19 23 -53 63 -75 88 -53 62 -78 100 -95 142 -8 19 -24 55 -37 79 -13
24 -23 51 -23 59 0 14 -11 41 -66 158 -13 28 -24 56 -24 62 0 6 -16 42 -36 80
-42 80 -44 112 -20 332 18 162 25 198 43 227 9 13 10 23 4 27 -5 3 -11 0 -14
-6 -3 -7 -10 0 -16 17 -21 53 3 323 39 443 11 34 20 83 21 110 2 39 -20 175
-47 295 -13 57 21 16 66 -79 42 -90 70 -132 70 -105 0 6 9 11 19 11 31 0 43
-54 16 -74 -8 -6 -19 -33 -25 -61 -6 -27 -18 -70 -26 -95 -15 -45 -30 -114
-54 -243 -9 -49 -9 -72 -2 -79 26 -26 60 45 77 162 4 25 11 50 16 56 5 6 22
62 38 125 19 77 33 114 42 114 8 0 22 26 34 63 l21 63 17 -48 c9 -26 17 -58
17 -70 0 -24 -22 -148 -44 -248 -19 -82 -112 -332 -140 -376 -29 -43 -91 -209
-101 -266 -4 -23 -20 -62 -36 -85 -16 -24 -29 -52 -29 -63 0 -17 32 -88 46
-104 7 -8 34 22 34 39 0 81 206 566 250 590 14 7 20 21 20 44 0 18 4 55 9 82
17 88 31 276 36 479 3 110 10 228 16 263 24 137 -29 353 -103 425 -18 18 -43
46 -56 62 -137 182 -144 189 -227 255 -31 25 -75 60 -97 78 -22 17 -52 35 -67
38 -23 4 -143 59 -398 180 -68 32 -101 63 -86 78 10 10 73 -4 115 -25 21 -11
46 -19 57 -19 10 0 52 -12 93 -26 40 -14 97 -34 126 -45 30 -10 122 -52 205
-93 128 -62 165 -85 234 -147 89 -81 156 -159 201 -235 29 -51 91 -199 112
-269 7 -22 20 -62 30 -90 26 -71 40 -125 40 -160 0 -16 6 -48 14 -70 17 -49 7
-142 -24 -230 -12 -33 -34 -112 -50 -175 -15 -63 -35 -135 -44 -159 -9 -24
-16 -61 -16 -82 0 -32 3 -39 20 -39 11 0 20 7 20 15 0 30 49 115 64 109 18 -7
28 21 17 49 -13 34 2 106 37 172 18 33 32 67 32 75 0 9 4 20 9 25 25 26 51
214 54 401 2 105 7 195 10 201 4 6 17 9 28 6 39 -11 24 34 -102 292 -83 169
-135 241 -279 386 -71 72 -148 134 -229 184 -9 6 -34 22 -56 36 -22 13 -62 35
-90 49 -27 13 -64 34 -81 46 -44 32 -183 81 -308 109 -34 8 -81 19 -106 25
-24 6 -64 13 -89 16 -24 2 -49 8 -55 12 -13 10 -84 26 -181 42 -38 7 -83 15
-100 20 -16 5 -52 11 -79 15 -41 6 -46 9 -35 20 20 19 100 44 129 40 14 -2 77
-9 140 -15 276 -26 389 -49 561 -114 53 -20 99 -36 102 -36 4 0 28 -13 54 -28
26 -16 62 -33 78 -39 44 -15 235 -144 343 -231 162 -131 291 -296 363 -462 55
-126 107 -282 115 -339 6 -48 6 -49 -18 -44 -32 6 -38 -10 -27 -68 13 -72 10
-306 -6 -394 -8 -44 -18 -136 -22 -204 -5 -109 -8 -124 -25 -129 -11 -3 -18
-13 -18 -29 0 -25 18 -54 90 -143 25 -31 63 -81 84 -113 22 -31 43 -57 47 -57
13 0 -9 49 -45 105 -18 28 -44 86 -59 130 -28 85 -28 99 -7 270 5 44 14 130
20 190 6 61 15 133 21 160 8 46 30 318 33 410 0 22 -3 57 -7 78 -6 30 -5 37 8
37 17 0 244 -187 342 -283 34 -34 65 -58 69 -54 14 14 -56 98 -211 252 -89 88
-170 175 -180 193 -11 17 -23 32 -27 32 -4 0 -8 6 -8 13 0 19 -32 52 -50 52
-8 0 -26 16 -40 36 -147 208 -286 354 -499 527 -36 28 -70 52 -75 52 -5 0 -32
17 -60 38 -94 70 -236 142 -346 176 -25 8 -61 21 -80 29 -19 8 -95 27 -168 41
-74 14 -146 33 -160 40 -15 8 -50 17 -77 21 -27 5 -67 16 -89 26 -23 10 -45
14 -51 10 -5 -5 -24 -12 -40 -15 -25 -5 -44 1 -93 30 -52 31 -61 41 -56 58 10
33 53 114 63 120 5 4 17 30 27 59 9 28 20 57 25 63 5 6 24 54 44 107 19 54 43
114 53 135 11 20 37 93 60 162 94 292 116 400 110 547 -3 62 -10 118 -15 125
-5 7 -16 46 -23 86 -14 76 -5 122 23 122 15 0 62 -49 172 -180 39 -46 75 -88
80 -94 6 -6 26 -32 43 -58 18 -27 35 -48 37 -48 9 0 -17 60 -31 71 -8 6 -14
15 -14 20 0 17 -105 165 -164 233 -34 38 -70 87 -81 110 -23 47 -52 57 -80 26
-26 -28 -41 -25 -54 11 -16 46 -14 63 12 87 21 19 25 20 77 7 85 -21 117 -32
141 -49 15 -10 35 -13 69 -9 31 4 58 0 81 -10 19 -8 45 -19 59 -23 57 -16 260
-141 380 -234 36 -27 69 -50 73 -50 20 0 -34 68 -103 130 -109 100 -156 133
-266 190 -54 29 -113 61 -131 71 -17 11 -57 22 -88 25 -31 3 -91 16 -133 30
-42 13 -85 24 -95 24 -10 0 -47 7 -83 16 -75 19 -107 51 -86 85 31 49 5 51
-48 3 -48 -44 -65 -41 -135 26 -27 26 -79 62 -115 80 -36 18 -86 50 -111 71
-43 36 -129 83 -137 74 -10 -10 28 -46 85 -80 84 -52 130 -91 149 -127 9 -17
14 -31 12 -32 -11 -8 -117 -26 -153 -26 -24 0 -79 -11 -122 -24 -43 -13 -110
-27 -150 -31 -39 -3 -97 -15 -127 -26 -84 -29 -121 -26 -167 16 -22 19 -43 35
-48 35 -5 0 -13 9 -16 21 -8 24 -54 73 -108 113 -32 24 -37 33 -34 61 4 36
-27 115 -49 128 -8 5 -12 12 -9 17 8 13 -16 60 -31 60 -14 0 -27 26 -28 55 -1
11 -9 21 -19 23 -9 2 -27 21 -38 43 -13 26 -26 39 -36 37 -24 -4 -26 -23 -6
-43 16 -17 16 -17 -7 -11 -24 7 -48 30 -82 79 -17 24 -88 67 -111 67 -7 0 -33
11 -59 25 -26 14 -55 25 -66 25 -10 0 -37 9 -60 20 -43 21 -107 26 -131 11
-23 -15 -4 -39 36 -47 33 -6 96 -43 113 -66 3 -4 35 -21 70 -38 187 -90 300
-166 284 -192 -9 -13 -60 -1 -131 33 -34 16 -66 29 -72 29 -6 0 -26 16 -45 35
-22 22 -45 35 -61 35 -44 0 -91 26 -149 84 -30 31 -63 56 -71 56 -21 0 -92 49
-128 89 -20 22 -41 32 -75 37 -26 4 -56 10 -67 14 -38 14 -107 91 -220 245
-27 38 -54 74 -60 81 -6 9 -5 26 4 50 12 34 11 40 -18 95 -17 33 -31 69 -31
81 0 12 -13 44 -29 72 -15 28 -31 74 -35 103 -6 48 -5 53 24 80 26 24 36 48
39 88 1 6 21 32 46 60 25 27 45 52 45 55 0 3 14 14 30 23 38 23 73 90 74 142
1 39 2 40 35 37 33 -2 101 30 101 49 0 14 -48 22 -93 15 -168 -25 -176 -28
-217 -94 -16 -26 -43 -56 -59 -67 -19 -12 -45 -48 -67 -93 -26 -52 -43 -74
-60 -78 -33 -8 -86 -71 -82 -97 2 -18 11 -23 46 -25 54 -4 71 -28 78 -113 2
-35 9 -79 14 -96 5 -20 5 -35 -1 -39 -14 -8 -97 62 -132 113 -33 46 -52 47
-43 2 5 -25 56 -115 86 -152 38 -47 66 -86 131 -187 147 -226 167 -269 126
-278 -23 -5 -164 131 -215 208 -20 30 -54 73 -75 95 -22 22 -60 67 -86 100
-25 33 -51 66 -58 73 -7 7 -13 17 -13 22 0 11 -41 50 -52 50 -12 0 -10 -48 3
-73 7 -12 42 -56 79 -97 93 -105 217 -271 236 -317 31 -72 34 -93 16 -93 -35
0 -97 23 -113 41 -12 14 -30 19 -63 19 -29 0 -45 -4 -41 -10 3 -5 -3 -10 -15
-10 -22 0 -130 98 -130 119 0 14 -12 30 -69 90 -24 25 -61 69 -81 96 -37 48
-102 114 -202 203 -34 30 -56 42 -78 42 -37 0 -37 -8 -5 -57 36 -52 30 -83
-19 -100 -34 -11 -48 -11 -100 2 -46 12 -67 13 -93 4 -41 -13 -85 -4 -109 22
-19 21 -64 25 -95 9 -29 -16 -27 -76 4 -86 12 -4 51 -24 86 -45 64 -39 96 -48
103 -28 5 16 73 -4 73 -21 0 -8 24 -32 53 -54 82 -61 65 -116 -21 -69 -18 10
-42 26 -53 36 -21 18 -22 18 -45 -6 -24 -25 -25 -25 -139 -17 -128 9 -148 14
-171 42 -15 19 -159 53 -325 76 -58 9 -161 58 -175 84 -5 10 -22 53 -36 95
-23 69 -25 88 -20 179 l5 102 -37 24 c-30 20 -36 29 -34 57 1 19 10 46 21 61
11 15 26 47 32 71 7 24 16 49 21 55 5 6 6 25 3 42 -5 24 -1 36 25 62 16 18 40
52 51 75 12 24 28 46 37 49 24 10 92 -13 106 -34 12 -21 37 -27 37 -10 0 5 16
12 36 16 43 8 151 -25 198 -61 18 -14 38 -25 44 -25 20 0 115 -60 191 -121 75
-60 96 -69 68 -28 -23 33 -121 103 -225 160 -51 28 -95 55 -98 60 -3 5 -13 9
-22 9 -10 0 -44 14 -75 30 -32 17 -71 30 -87 30 -16 0 -32 5 -35 10 -3 6 -15
10 -25 10 -11 0 -24 6 -29 13 -46 56 -61 76 -61 86 0 15 114 71 146 71 29 0
123 25 164 44 21 9 6 12 -90 16 l-115 5 -43 -38 c-23 -21 -46 -35 -51 -32 -12
7 -102 -21 -175 -53 -84 -38 -198 -34 -209 8 -4 15 -14 20 -39 20 -41 0 -52 8
-56 40 -6 40 -24 51 -98 57 -38 3 -76 12 -85 19 -9 8 -42 15 -75 17 -50 2 -62
-1 -81 -20z m766 -259 c9 -8 -32 -42 -70 -60 -40 -18 -42 -18 -55 1 -20 28
-18 55 5 55 11 0 22 4 25 9 5 8 85 4 95 -5z m-274 -3 c10 -17 -25 -40 -72 -47
-28 -4 -57 -16 -72 -30 -14 -13 -41 -27 -59 -30 -17 -4 -35 -10 -38 -15 -6
-11 -44 -12 -44 -1 0 4 9 22 20 40 26 43 83 68 118 52 21 -9 28 -8 46 8 33 30
88 43 101 23z m-675 -90 c0 -21 -13 -41 -26 -41 -17 0 -17 5 -4 31 11 20 30
26 30 10z m-143 -18 c-9 -9 -19 -14 -23 -11 -10 10 6 28 24 28 15 0 15 -1 -1
-17z m503 -35 c-1 -19 -25 -48 -40 -48 -40 0 -199 -132 -271 -225 -21 -27 -49
-62 -61 -77 -16 -21 -19 -32 -12 -48 9 -21 10 -21 48 9 52 42 76 41 76 -2 0
-18 -6 -41 -12 -52 -16 -25 -17 -87 -1 -92 6 -2 19 7 29 21 13 20 14 29 5 40
-10 12 -5 19 26 40 45 31 60 32 68 6 3 -11 15 -20 26 -20 16 0 19 -7 19 -49 0
-43 3 -51 23 -57 81 -24 74 -134 -9 -134 -28 0 -34 -4 -34 -20 0 -77 -84 -121
-235 -123 -85 -1 -99 1 -111 18 -22 30 -18 102 7 123 69 58 155 183 118 170
-8 -3 -22 -1 -32 4 -26 14 -95 -46 -123 -107 -45 -99 -72 -111 -48 -20 7 28
13 68 14 91 0 29 11 59 40 107 22 36 40 70 40 76 0 18 92 146 136 188 24 23
58 49 76 58 18 8 58 33 88 55 88 64 114 80 133 80 9 0 17 -6 17 -12z m-691
-41 c6 -8 8 -17 5 -20 -10 -9 -45 13 -39 24 9 13 21 11 34 -4z m996 -28 c4
-17 5 -31 3 -33 -46 -31 -56 -35 -61 -22 -7 18 24 86 39 86 7 0 15 -14 19 -31z
m62 -97 c5 -43 2 -57 -20 -94 -27 -46 -61 -81 -89 -91 -23 -8 -23 11 -2 61 9
21 13 50 10 67 -5 25 1 38 37 77 23 26 45 43 50 39 4 -4 10 -31 14 -59z
m-1177 -27 c0 -31 -34 -52 -56 -34 -28 23 -8 59 33 59 18 0 23 -6 23 -25z
m3288 -20 c-2 -16 -14 -33 -30 -43 -27 -16 -29 -16 -50 6 -28 28 -17 52 33 69
40 13 52 5 47 -32z m-2493 -19 c0 -60 -17 -70 -45 -24 -24 40 -24 42 -4 63 30
30 49 15 49 -39z m-151 -52 c7 -17 -41 -67 -58 -61 -19 6 -19 38 0 58 21 23
50 25 58 3z m36 -63 c0 -6 -4 -13 -10 -16 -5 -3 -10 1 -10 9 0 9 5 16 10 16 6
0 10 -4 10 -9z m2504 -26 c3 -8 1 -15 -4 -15 -6 0 -10 7 -10 15 0 8 2 15 4 15
2 0 6 -7 10 -15z m-2379 -365 c0 -7 -6 -15 -12 -17 -8 -3 -13 4 -13 17 0 13 5
20 13 18 6 -3 12 -11 12 -18z m-15 -34 c0 -2 -7 -6 -15 -10 -8 -3 -15 -1 -15
4 0 6 7 10 15 10 8 0 15 -2 15 -4z m1817 -191 c3 -9 3 -19 -1 -22 -7 -7 -36
16 -36 28 0 15 30 10 37 -6z m-90 -71 c34 -13 65 -24 70 -24 5 0 20 -11 33
-25 13 -14 29 -25 37 -25 7 0 13 -3 13 -8 0 -4 18 -18 40 -32 62 -38 67 -76 7
-51 -18 7 -59 17 -92 21 -33 4 -79 17 -102 29 -47 23 -72 27 -119 16 -27 -6
-34 -3 -53 24 -21 29 -23 72 -4 104 8 14 103 -3 170 -29z m1232 -290 c12 -14
20 -28 17 -31 -9 -9 -56 26 -56 42 0 22 14 18 39 -11z m-191 -34 c109 -61 213
-102 271 -106 56 -4 128 -26 183 -55 10 -5 25 -9 33 -9 8 0 64 -16 123 -35
102 -33 139 -54 210 -122 7 -7 17 -13 21 -13 4 0 35 -27 69 -59 50 -48 62 -65
62 -90 0 -38 -4 -38 -42 -6 -19 16 -37 23 -49 20 -13 -4 -31 5 -58 32 -22 21
-54 49 -71 62 -47 36 -167 83 -219 86 -25 1 -68 12 -94 24 -27 11 -57 21 -67
21 -11 0 -30 5 -44 11 -19 9 -29 9 -40 0 -27 -22 -156 27 -156 60 0 5 -9 9
-20 9 -36 0 -150 133 -150 175 0 8 19 6 38 -5z m-7559 -29 c23 -15 -5 -41 -44
-41 -34 0 -61 22 -50 40 8 12 75 13 94 1z m2195 -183 c36 -42 49 -98 24 -98
-9 0 -9 -3 1 -9 12 -8 12 -13 -3 -35 -9 -14 -20 -26 -25 -26 -14 0 -39 34 -46
62 -4 15 -18 34 -31 43 -13 8 -24 22 -24 29 0 7 -7 19 -15 26 -21 18 -19 41 3
33 9 -4 20 -11 24 -17 4 -6 8 -1 8 12 0 38 43 28 84 -20z m1046 -44 c0 -4 -18
-26 -40 -50 -22 -24 -43 -58 -47 -74 -3 -17 -9 -30 -14 -30 -5 0 -9 -9 -9 -20
0 -16 -90 -203 -105 -219 -11 -10 -24 12 -16 27 11 20 47 128 64 189 7 23 22
53 35 67 12 15 22 30 22 34 0 5 14 21 30 35 17 15 30 32 30 37 0 6 11 10 25
10 14 0 25 -3 25 -6z m4477 0 c-3 -3 -12 -4 -19 -1 -8 3 -5 6 6 6 11 1 17 -2
13 -5z m-7767 -103 c0 -24 -25 -34 -51 -21 -34 19 -20 38 29 39 15 1 22 -5 22
-18z m8631 -198 c23 -15 45 -37 49 -49 8 -21 60 -54 85 -54 6 0 17 -11 23 -25
10 -22 9 -25 -8 -25 -10 0 -22 5 -25 10 -8 12 -45 13 -45 1 0 -4 16 -27 36
-50 27 -30 44 -41 65 -41 15 0 44 -10 64 -21 36 -22 36 -22 50 -2 16 23 110
60 170 67 22 3 66 12 97 19 31 8 92 15 135 16 43 1 116 6 163 10 117 11 159 5
172 -25 6 -13 19 -26 30 -29 10 -4 18 -13 18 -20 0 -8 9 -19 20 -25 28 -15 25
-34 -12 -69 -22 -21 -51 -34 -88 -42 -30 -6 -65 -15 -76 -19 -12 -5 -43 -12
-70 -15 l-49 -7 40 31 c22 17 46 31 54 31 8 0 21 7 30 15 9 8 26 23 39 35 48
44 16 52 -73 19 -38 -14 -59 -28 -65 -44 -5 -12 -29 -34 -54 -49 -25 -15 -46
-31 -46 -36 0 -5 -31 -31 -68 -58 -109 -76 -130 -97 -151 -151 -10 -28 -30
-64 -42 -80 -13 -15 -32 -43 -41 -60 -35 -64 -68 -50 -68 29 1 50 25 95 39 71
13 -21 24 5 11 28 -8 15 -6 40 5 93 16 76 12 88 -27 88 -10 0 -18 4 -18 9 0 5
-13 23 -30 41 -21 23 -35 30 -49 25 -26 -8 -57 9 -102 54 -38 39 -119 145
-119 157 0 10 -70 74 -81 74 -9 0 -49 49 -49 61 0 5 8 6 18 2 14 -5 15 -3 5 8
-13 13 -17 29 -8 29 3 0 24 -12 46 -27z m-9739 -45 c-9 -9 -15 -9 -24 0 -9 9
-7 12 12 12 19 0 21 -3 12 -12z m428 -53 c36 -19 40 -38 6 -29 -31 7 -146 -29
-215 -67 -30 -17 -75 -37 -100 -44 -99 -28 -152 -56 -234 -122 -16 -13 -41
-23 -56 -23 -16 0 -41 -10 -56 -22 -15 -12 -66 -45 -111 -74 -152 -95 -221
-154 -299 -250 -42 -52 -80 -94 -85 -94 -5 0 -29 -31 -54 -70 -44 -68 -76 -89
-76 -52 0 10 14 31 31 48 18 16 52 72 76 124 24 52 56 107 71 121 15 14 58 63
97 109 71 84 120 125 255 214 78 51 265 146 288 146 7 0 34 11 60 24 26 13 70
26 97 30 28 3 88 15 135 25 106 24 133 25 170 6z m10513 -71 c16 -13 37 -24
47 -24 9 0 23 -6 29 -14 9 -11 6 -18 -15 -35 -46 -36 -100 -24 -89 21 6 23 2
27 -29 38 -36 11 -48 34 -23 43 19 8 49 -3 80 -29z m-1413 -76 c0 -11 5 -29
11 -40 7 -13 7 -24 1 -30 -16 -16 -69 103 -55 125 8 14 43 -30 43 -55z m-9196
-24 c22 -9 20 -31 -4 -39 -45 -14 -98 14 -73 38 8 9 56 9 77 1z m-354 -144 c0
-14 -24 -23 -47 -17 -15 3 -14 6 7 15 32 14 40 14 40 2z m10885 -51 c14 -14
44 -11 75 7 15 10 36 14 45 10 15 -5 12 -12 -21 -50 -42 -47 -59 -56 -149 -82
-94 -26 -248 -85 -270 -104 -50 -43 -71 -51 -99 -39 -14 7 -26 20 -26 31 0 14
-8 18 -37 18 -90 1 -79 34 40 118 78 55 87 59 187 76 57 10 114 22 125 27 24
10 116 2 130 -12z m256 -85 c15 -24 23 -55 25 -93 1 -31 5 -73 9 -93 8 -40
-11 -284 -25 -333 -81 -264 -147 -449 -200 -560 -56 -116 -120 -277 -120 -302
0 -24 -21 -49 -49 -58 -11 -3 -22 -12 -25 -20 -7 -19 -35 -19 -42 0 -7 18
-104 88 -112 81 -3 -3 -23 12 -45 35 l-40 40 6 72 c4 40 12 88 18 107 12 36
98 165 135 203 44 45 62 84 74 157 7 41 16 80 21 86 19 23 91 164 156 304 14
30 38 80 53 110 27 54 28 77 6 92 -20 14 -23 9 -35 -49 -14 -67 -29 -97 -129
-263 -97 -161 -115 -204 -108 -258 6 -41 3 -47 -51 -115 -32 -40 -81 -98 -110
-129 -60 -65 -89 -118 -112 -202 -19 -71 -37 -82 -47 -29 -4 21 -13 50 -20 65
-18 35 -17 116 1 148 9 16 14 56 15 115 0 50 4 104 9 122 7 25 6 33 -6 37 -17
7 -16 23 11 181 9 50 16 113 16 140 1 57 20 117 46 146 16 17 37 25 115 43 14
3 43 20 65 37 50 40 131 79 166 79 35 0 216 87 245 117 32 33 58 29 84 -13z
m-11351 -22 c0 -24 -154 -125 -208 -137 -41 -9 -44 17 -5 42 15 10 37 28 50
40 12 13 28 23 35 23 7 0 24 9 38 20 25 19 90 28 90 12z m10599 -156 c9 -11 7
-30 -12 -88 -14 -40 -28 -94 -31 -120 -4 -27 -11 -48 -15 -48 -27 0 -61 80
-61 142 0 46 32 115 57 121 34 9 51 7 62 -7z m-189 -204 c-1 -25 -2 -26 -15
-9 -7 11 -11 25 -8 33 8 22 23 6 23 -24z m-11090 -141 c0 -5 -14 -24 -32 -42
-33 -36 -34 -33 -3 18 19 32 35 42 35 24z m768 -73 c-2 -7 -18 -20 -36 -28
-17 -8 -32 -21 -32 -27 0 -7 -27 -38 -61 -70 -102 -97 -204 -252 -256 -387
-30 -80 -41 -132 -69 -334 -3 -20 -10 -32 -17 -29 -16 5 -26 66 -26 170 -1 76
3 99 29 165 17 41 52 110 77 151 48 77 163 231 174 231 3 0 41 34 85 76 71 68
103 92 127 93 5 1 7 -5 5 -11z m1377 -203 c50 -78 95 -178 95 -212 0 -43 -89
24 -105 79 -4 13 -20 58 -36 100 -54 143 -34 157 46 33z m8919 20 c33 -42 47
-105 24 -105 -8 0 -22 8 -30 18 -18 19 -48 88 -48 108 0 25 27 15 54 -21z
m-7960 9 c9 -3 16 -10 16 -14 0 -13 -43 -18 -100 -11 -51 7 -53 8 -30 19 28
12 90 15 114 6z m-3065 -210 c-10 -20 -9 -50 5 -165 27 -220 53 -360 76 -412
12 -26 20 -52 18 -58 -4 -13 -48 19 -48 36 0 8 -11 30 -24 50 -27 40 -47 99
-71 218 -26 127 -21 225 15 297 9 19 21 49 25 65 6 23 9 26 13 11 2 -10 -2
-29 -9 -42z m8755 -709 c-4 -8 -11 -15 -16 -15 -6 0 -5 6 2 15 7 8 14 15 16
15 2 0 1 -7 -2 -15z m-6379 -44 c-8 -17 -23 -36 -33 -43 -10 -7 -47 -55 -81
-106 -35 -50 -70 -98 -79 -105 -10 -6 -26 -29 -37 -50 -11 -21 -28 -45 -37
-54 -17 -15 -18 -15 -18 1 0 28 27 84 48 97 12 8 17 20 14 34 -5 30 27 90 89
164 49 59 92 88 132 90 16 1 16 -1 2 -28z m6306 -126 c-23 -58 -41 -110 -41
-117 -1 -24 -39 -98 -51 -98 -8 0 -10 15 -5 54 12 104 61 231 110 283 21 22
21 22 24 2 2 -11 -15 -67 -37 -124z m-7542 -139 c11 -25 54 -96 94 -158 101
-156 138 -249 144 -358 4 -78 -6 -124 -23 -108 -7 7 -36 105 -58 193 -15 60
-104 245 -153 318 -41 61 -76 144 -69 164 9 24 41 -2 65 -51z m4262 20 c-7 -8
-27 -18 -44 -21 -18 -3 -41 -10 -52 -14 -11 -4 -45 -16 -75 -25 -141 -45 -325
-128 -401 -183 -26 -18 -51 -33 -56 -33 -6 0 -65 -44 -131 -97 -67 -54 -143
-114 -169 -133 -99 -74 -262 -265 -337 -397 -20 -35 -52 -91 -72 -125 -135
-232 -205 -427 -207 -573 -2 -78 0 -83 52 -190 30 -60 68 -129 84 -153 31 -47
87 -164 87 -184 0 -7 24 -60 54 -118 63 -125 90 -213 115 -384 9 -58 -1 -124
-14 -91 -4 11 -16 38 -26 60 -10 22 -23 63 -30 90 -26 110 -81 227 -170 362
-84 128 -221 399 -249 493 -43 143 -19 255 108 500 27 52 63 119 80 148 18 29
32 55 32 58 0 3 17 31 37 62 20 31 57 89 82 127 83 128 238 305 267 305 7 0
26 11 42 25 17 14 34 25 40 25 5 0 49 38 98 84 117 110 225 196 246 196 9 0
21 6 25 13 11 17 90 67 106 67 7 0 17 4 23 8 27 24 200 79 274 88 30 4 64 10
75 15 11 4 42 8 69 8 41 1 47 -1 37 -13z m-3678 -61 c-3 -9 -8 -14 -10 -11 -3
3 -2 9 2 15 9 16 15 13 8 -4z m-2678 -134 c-11 -18 -43 -32 -50 -22 -3 6 7 17
22 25 30 15 39 14 28 -3z m2590 -48 c-4 -20 -21 -67 -38 -103 -24 -52 -31 -60
-34 -42 -3 12 4 37 15 55 11 17 27 53 37 80 21 56 30 61 20 10z m-1136 -32
c56 -64 70 -103 20 -55 -26 24 -38 29 -82 29 -50 0 -52 1 -55 28 -5 43 4 57
37 57 23 0 39 -12 80 -59z m402 -119 c28 -65 23 -119 -8 -79 -19 23 -54 130
-48 146 6 14 8 13 22 -4 8 -11 24 -39 34 -63z m2639 -10 c0 -11 -9 -27 -20
-37 -18 -16 -20 -17 -20 -1 0 19 21 56 32 56 5 0 8 -8 8 -18z m300 -57 c0 -11
-65 -152 -81 -175 -20 -30 -47 -111 -95 -285 -19 -71 -64 -209 -98 -305 -97
-270 -101 -285 -101 -500 0 -160 3 -196 22 -265 52 -191 124 -334 239 -476 80
-99 133 -192 141 -245 5 -41 4 -44 -18 -44 -31 0 -160 33 -224 57 -140 53
-249 128 -398 276 -101 99 -133 137 -153 184 -28 62 -37 144 -22 201 17 62 34
35 98 -163 29 -88 36 -98 62 -84 21 12 21 10 -1 139 -7 36 -19 108 -27 160
-23 138 -18 130 -72 127 l-46 -2 -11 75 c-8 49 -9 87 -3 108 5 19 7 40 4 47
-4 12 24 224 50 380 8 48 41 98 59 91 8 -3 18 7 24 26 14 41 14 65 -1 71 -9 3
-6 12 10 29 12 13 22 28 23 34 0 5 31 36 69 69 37 33 85 82 106 108 22 27 67
78 102 115 l62 66 0 -33 c0 -50 -55 -154 -101 -191 -21 -17 -39 -37 -39 -44 0
-7 -9 -21 -19 -30 -28 -26 -55 -89 -80 -185 -11 -47 -21 -88 -21 -93 0 -30 97
116 160 242 38 75 64 110 141 188 31 31 67 77 79 102 12 24 40 67 61 96 22 28
39 55 39 59 0 13 44 75 53 75 4 0 7 -2 7 -5z m-3259 -152 c9 -38 2 -133 -10
-133 -10 0 -31 76 -31 110 0 32 18 76 27 67 2 -3 9 -23 14 -44z m-1 -177 c0
-14 -4 -28 -10 -31 -6 -4 -10 7 -10 24 0 17 5 31 10 31 6 0 10 -11 10 -24z
m2716 -9 c-9 -37 -45 -77 -69 -77 l-22 0 23 23 c13 12 32 37 43 56 22 36 35
36 25 -2z m-4506 -37 c22 -14 -5 -55 -71 -105 -45 -34 -67 -44 -112 -49 -34
-4 -58 -3 -62 3 -10 17 13 49 46 66 16 9 53 34 82 55 51 39 88 49 117 30z
m4450 -80 c0 -5 -4 -10 -10 -10 -5 0 -10 5 -10 10 0 6 5 10 10 10 6 0 10 -4
10 -10z m9391 -32 c17 -13 51 -52 75 -88 24 -36 62 -83 84 -105 23 -22 57 -69
76 -104 28 -51 34 -72 32 -109 -4 -59 -25 -67 -34 -13 -4 22 -22 64 -40 93
-19 29 -34 58 -34 65 0 7 -36 48 -80 91 -120 118 -179 243 -79 170z m-9411 -8
c0 -5 -4 -10 -10 -10 -5 0 -10 5 -10 10 0 6 5 10 10 10 6 0 10 -4 10 -10z
m-4511 -77 c-5 -16 -23 -41 -39 -58 -28 -28 -78 -97 -138 -192 -33 -51 -46
-55 -38 -9 9 46 49 119 103 185 23 29 43 59 43 65 0 20 23 36 52 36 26 0 27
-2 17 -27z m10724 11 c32 -4 45 -10 39 -16 -7 -7 -27 -6 -59 1 -52 13 -99 37
-53 28 14 -3 47 -9 73 -13z m-11297 -82 c-8 -10 -27 -19 -42 -20 -26 -2 -25
-1 12 26 40 29 59 25 30 -6z m14424 -31 c12 -24 14 -111 2 -111 -9 0 -42 92
-42 116 0 21 28 17 40 -5z m-10002 -64 c27 -56 44 -142 38 -196 -6 -62 -18
-81 -44 -65 -33 21 -47 97 -44 232 2 54 4 63 19 60 10 -2 24 -16 31 -31z
m-2808 -64 c0 -14 -48 -53 -64 -53 -21 0 -20 13 2 32 26 23 62 35 62 21z
m-160 -103 c0 -5 -7 -10 -16 -10 -9 0 -14 -8 -13 -17 3 -34 -1 -40 -41 -67
-46 -30 -60 -32 -60 -10 0 19 54 84 84 101 26 15 46 16 46 3z m12820 -56 c0
-8 -4 -12 -10 -9 -5 3 -10 10 -10 16 0 5 5 9 10 9 6 0 10 -7 10 -16z m-14262
-20 c30 -6 31 -7 18 -33 -28 -53 -25 -66 18 -71 52 -7 58 -28 35 -115 -10 -39
-24 -97 -29 -130 -6 -33 -17 -78 -25 -100 -34 -91 -49 -262 -50 -555 -1 -204
-5 -291 -13 -307 -7 -13 -12 -58 -12 -100 0 -43 -2 -89 -3 -102 -2 -13 5 -33
16 -45 26 -29 69 -144 57 -151 -13 -8 -78 43 -95 74 -8 14 -32 45 -55 69 -42
45 -48 58 -29 64 9 3 8 11 -1 28 -7 14 -16 27 -20 30 -4 3 -21 33 -38 67 -18
34 -36 64 -41 67 -15 9 -67 126 -91 201 -12 39 -32 102 -45 140 -42 128 -58
213 -52 279 17 162 95 375 174 474 75 93 126 148 175 185 53 39 58 41 106 31z
m14380 -91 c35 -99 48 -228 23 -228 -8 0 -20 26 -31 71 -10 38 -31 104 -47
146 -27 67 -28 76 -14 86 30 21 39 12 69 -75z m-12398 -60 c0 -17 -94 -108
-172 -167 -37 -27 -59 -60 -113 -163 -15 -29 -31 -53 -36 -53 -14 0 -11 43 5
65 7 11 17 31 21 45 4 14 20 59 36 100 26 67 35 79 85 115 89 64 174 92 174
58z m-270 -32 c0 -16 -38 -51 -55 -51 -10 0 -5 46 7 58 19 19 48 15 48 -7z
m210 -260 c-11 -16 -38 -44 -60 -61 -36 -29 -40 -30 -40 -11 0 21 54 85 80 94
36 13 41 7 20 -22z m-1774 -73 c-3 -17 -13 -45 -21 -61 -8 -17 -15 -56 -15
-88 0 -32 -5 -70 -11 -86 -10 -26 -41 -63 -54 -63 -18 0 11 146 34 174 5 6 9
13 9 16 0 10 23 96 32 118 15 34 34 28 26 -10z m1907 6 c12 -12 -22 -60 -60
-87 -43 -30 -75 -34 -92 -13 -30 36 118 133 152 100z m228 -74 c-25 -21 -51
-26 -51 -10 0 13 31 29 55 29 19 0 19 -1 -4 -19z m-471 -10 c0 -5 -11 -34 -24
-64 -17 -38 -34 -60 -55 -71 -17 -8 -31 -14 -31 -12 0 26 45 117 67 134 30 25
43 29 43 13z m3722 -23 c9 -8 21 -32 27 -55 8 -37 7 -42 -9 -42 -29 0 -69 39
-76 75 -10 58 5 64 58 22z m-3387 -344 c14 -21 13 -24 -20 -49 -28 -21 -33
-29 -24 -40 6 -8 23 -14 37 -14 43 0 141 -33 147 -50 22 -55 -176 -76 -525
-54 -135 8 -145 10 -145 29 0 37 69 61 196 69 136 8 168 25 115 60 -19 12 -31
13 -55 5 -18 -6 -36 -7 -46 -2 -13 8 -12 11 10 23 14 7 28 24 32 38 5 21 10
23 39 17 30 -5 35 -3 44 19 17 46 39 48 113 8 37 -20 74 -47 82 -59z m-515 13
c0 -46 -21 -62 -60 -46 -41 17 -39 27 14 68 35 27 46 21 46 -22z m-723 -102
c-3 -3 -12 -4 -19 -1 -8 3 -5 6 6 6 11 1 17 -2 13 -5z m4163 -60 c0 -19 -16
-10 -31 17 -10 19 -9 20 10 9 12 -6 21 -18 21 -26z m-3597 -19 c3 -14 -68 -19
-90 -6 -16 9 -16 11 6 19 28 10 81 2 84 -13z m-1376 -172 c-3 -10 -5 -4 -5 12
0 17 2 24 5 18 2 -7 2 -21 0 -30z m1653 -7 c0 -8 -13 -17 -30 -21 -35 -8 -38
-20 -10 -35 28 -15 25 -30 -7 -30 -30 1 -63 20 -63 38 0 5 -7 13 -16 16 -24 9
-11 30 22 37 56 12 104 10 104 -5z m-237 -26 c20 -6 53 -25 72 -43 127 -117
294 -220 453 -279 31 -11 62 -24 67 -28 6 -5 41 -20 79 -34 57 -22 85 -26 169
-26 97 0 100 -1 83 -19 -36 -39 -220 -34 -306 9 -19 9 -60 25 -90 34 -30 9
-80 28 -110 40 -87 37 -212 78 -249 82 -43 4 -74 25 -100 67 -25 42 -83 81
-170 116 -80 34 -96 54 -61 83 21 17 34 19 75 15 28 -4 67 -11 88 -17z m4604
-29 c-7 -58 -74 -198 -88 -184 -6 6 -2 31 10 69 11 32 25 79 32 104 16 58 17
60 36 60 13 0 15 -9 10 -49z m-727 -31 c0 -5 -4 -10 -10 -10 -5 0 -10 5 -10
10 0 6 5 10 10 10 6 0 10 -4 10 -10z m-5280 -96 c0 -70 -3 -95 -12 -92 -26 9
-32 98 -11 171 12 45 23 8 23 -79z m14004 -256 c19 -27 21 -58 3 -58 -21 0
-37 22 -37 52 0 34 13 36 34 6z m530 -38 c33 -20 96 -99 96 -120 0 -6 9 -31
20 -56 12 -24 18 -49 15 -54 -7 -12 -50 18 -104 71 -53 52 -98 179 -64 179 3
0 20 -9 37 -20z m-2034 -397 c0 -51 -2 -55 -13 -38 -7 11 -18 37 -24 58 -11
35 -10 37 13 37 23 0 24 -3 24 -57z m1744 -69 c10 -27 -2 -29 -24 -6 -20 21
-20 22 -1 22 10 0 22 -7 25 -16z m-1739 -64 c4 -17 15 -32 27 -36 14 -4 17 -8
8 -14 -8 -5 -10 -24 -5 -64 7 -56 -5 -93 -26 -80 -5 3 -9 0 -9 -5 0 -6 5 -11
10 -11 6 0 10 -8 10 -19 0 -10 7 -24 15 -31 9 -7 14 -19 11 -27 -3 -7 -1 -25
5 -40 12 -31 -12 -93 -36 -93 -8 0 -15 -7 -15 -16 0 -8 -4 -12 -10 -9 -5 3
-10 40 -10 81 0 43 -4 74 -10 74 -14 0 -12 30 4 61 11 22 11 30 0 50 -19 35
-18 143 2 160 8 7 13 21 11 31 -3 10 -1 18 3 18 5 0 11 -13 15 -30z m1533
-147 c5 -10 12 -31 16 -48 l6 -30 -25 28 c-25 28 -34 67 -15 67 5 0 13 -8 18
-17z m-13982 -378 c-7 -38 -26 -48 -26 -14 0 24 19 63 27 55 3 -3 2 -21 -1
-41z m2774 -114 c0 -19 -54 -43 -107 -47 -31 -3 -65 -11 -77 -18 -44 -28 -91
-28 -141 -1 -27 14 -61 25 -76 25 -16 0 -29 4 -29 8 0 4 76 8 168 8 134 1 174
4 197 17 33 18 65 22 65 8z m11321 -193 c55 -57 114 -117 131 -135 18 -18 27
-36 23 -43 -4 -7 -3 -22 2 -33 6 -12 20 -55 33 -95 18 -55 21 -75 12 -84 -8
-8 -15 -8 -21 -2 -15 14 -111 206 -111 220 0 7 -25 40 -57 73 -31 33 -61 69
-67 80 -50 86 -65 121 -50 121 3 0 50 -46 105 -102z m-11508 -74 c-4 -10 -9
-12 -15 -6 -12 12 -1 35 12 27 5 -3 6 -13 3 -21z m-33 -90 c0 -23 -30 -137
-40 -149 -4 -5 -22 -48 -39 -95 -18 -47 -38 -98 -46 -115 -7 -16 -21 -52 -30
-80 -10 -27 -39 -84 -66 -125 -59 -90 -67 -100 -79 -100 -19 0 -10 31 40 135
28 58 50 107 50 110 0 4 24 56 54 118 77 162 84 177 96 227 13 50 35 90 50 90
6 0 10 -7 10 -16z m11447 -114 c27 -50 13 -53 -16 -4 -23 39 -25 44 -13 44 4
0 17 -18 29 -40z m-14057 -249 c0 -12 -39 -25 -48 -16 -7 7 17 25 36 25 6 0
12 -4 12 -9z m14132 -100 c30 -27 33 -34 36 -104 4 -72 3 -76 -22 -92 -14 -10
-26 -24 -26 -33 0 -16 -76 -92 -92 -92 -10 0 44 102 69 131 15 18 17 86 4 121
-16 43 -22 98 -12 98 6 0 25 -13 43 -29z m102 -233 c10 -39 7 -85 -8 -97 -11
-9 -15 -2 -21 44 -6 53 -2 75 14 75 5 0 11 -10 15 -22z m-244 -145 c0 -5 -4
-15 -10 -23 -11 -18 -25 -7 -17 15 6 15 27 21 27 8z m196 -47 c-2 -45 -28 -96
-47 -96 -7 0 -9 10 -4 28 7 29 44 112 50 112 2 0 3 -20 1 -44z m-276 -8 c0
-15 -80 -138 -90 -138 -4 0 -18 -17 -31 -37 -18 -30 -24 -34 -27 -20 -3 16 74
181 100 214 12 15 48 0 48 -19z m106 -159 c24 -47 12 -69 -135 -249 -54 -66
-98 -105 -129 -117 -50 -18 -41 11 21 71 46 44 77 89 134 194 7 13 24 37 38
54 14 16 25 37 25 47 0 41 25 41 46 0z m-285 -102 c-8 -8 -11 -7 -11 4 0 9 3
19 7 23 4 4 9 2 11 -4 3 -7 -1 -17 -7 -23z m-25 -52 c-4 -14 -11 -60 -16 -101
-8 -62 -17 -86 -47 -132 -38 -57 -71 -76 -65 -37 2 11 5 48 6 82 1 48 6 66 21
81 11 10 36 44 55 75 36 60 56 74 46 32z m-11118 -4 c10 -6 4 -15 -22 -34 -19
-15 -41 -27 -48 -27 -8 0 -19 -5 -25 -11 -15 -15 -23 3 -9 22 11 15 75 59 86
59 3 0 11 -4 18 -9z m-2440 -972 c7 -41 20 -99 29 -129 9 -30 18 -83 20 -118
4 -56 2 -68 -22 -103 -30 -43 -38 -42 -62 4 -13 26 -16 66 -17 212 -1 99 2
188 7 198 14 36 32 10 45 -64z m201 -166 c18 -74 19 -83 10 -88 -5 -3 -18 -1
-29 5 -17 9 -20 20 -19 58 1 26 4 50 6 55 10 17 23 4 32 -30z m1551 -174 c0
-42 -14 -52 -25 -18 -9 26 2 72 15 64 6 -3 10 -24 10 -46z m358 -246 c-2 -30
-8 -38 -30 -44 -24 -6 -28 -4 -28 15 0 28 27 66 46 66 11 0 14 -9 12 -37z
m10556 -2099 c9 -22 8 -24 -9 -24 -8 0 -15 9 -15 20 0 24 15 27 24 4z m-70
-29 c-4 -8 -11 -12 -16 -9 -6 4 -5 10 3 15 19 12 19 11 13 -6z m-324 -410 c0
-10 -10 -15 -30 -15 -26 0 -29 2 -18 15 17 19 48 19 48 0z m-3293 -291 c-30
-16 -44 -14 -32 5 3 6 18 11 33 11 l27 -1 -28 -15z m3037 -1269 c3 -8 1 -15
-5 -15 -6 0 -3 -10 5 -22 20 -28 20 -55 1 -74 -32 -33 -47 19 -29 104 5 25 19
29 28 7z m-1876 -213 c2 -7 -3 -12 -12 -12 -9 0 -16 7 -16 16 0 17 22 14 28
-4z m1392 -982 c0 -5 -4 -10 -10 -10 -5 0 -10 5 -10 10 0 6 5 10 10 10 6 0 10
-4 10 -10z m-1918 -237 c26 -23 22 -33 -12 -33 -16 0 -30 -5 -30 -10 0 -6 8
-10 18 -8 21 4 29 -36 11 -58 -11 -13 -15 -11 -30 18 -9 18 -21 31 -26 28 -14
-9 -16 62 -1 71 21 14 50 10 70 -8z m-3292 -2308 c0 -8 -4 -15 -9 -15 -5 0
-11 7 -15 15 -3 9 0 15 9 15 8 0 15 -7 15 -15z m4590 -770 c0 -3 -16 -22 -36
-42 -32 -32 -35 -33 -29 -12 9 31 34 59 52 59 7 0 13 -2 13 -5z m80 -65 c0 -5
-4 -10 -10 -10 -5 0 -10 5 -10 10 0 6 5 10 10 10 6 0 10 -4 10 -10z m-925
-260 c0 -16 -6 -26 -17 -28 -14 -3 -18 3 -18 28 0 25 4 31 18 28 11 -2 17 -12
17 -28z m1278 -77 c-7 -2 -19 -2 -25 0 -7 3 -2 5 12 5 14 0 19 -2 13 -5z m87
-202 c0 -6 -4 -13 -10 -16 -5 -3 -10 1 -10 9 0 9 5 16 10 16 6 0 10 -4 10 -9z
m58 -212 c-3 -8 -7 -3 -11 10 -4 17 -3 21 5 13 5 -5 8 -16 6 -23z m-18 -29 c0
-5 -4 -10 -10 -10 -5 0 -10 5 -10 10 0 6 5 10 10 10 6 0 10 -4 10 -10z m-34
-105 c16 -16 7 -19 -20 -9 -9 3 -13 10 -10 15 7 12 13 11 30 -6z m65 -7 c22
-28 24 -38 5 -38 -17 0 -48 39 -40 52 8 12 14 10 35 -14z m-25 -52 c8 -8 14
-21 14 -28 0 -8 -3 -9 -8 -2 -4 6 -15 13 -24 17 -20 7 -25 27 -7 27 6 0 17 -6
25 -14z m-1230 -504 c-22 -5 -30 3 -21 18 5 8 11 7 22 -2 15 -12 14 -13 -1
-16z"/>
<path d="M12892 23443 c-21 -4 -23 -9 -18 -37 5 -27 1 -37 -24 -61 -16 -16
-30 -35 -30 -42 0 -25 37 4 61 47 17 31 32 43 61 51 28 7 38 15 38 29 0 16 -6
20 -32 19 -18 -1 -44 -4 -56 -6z"/>
<path d="M12770 23248 c-15 -14 -19 -23 -11 -26 13 -4 51 25 51 40 0 14 -15 9
-40 -14z"/>
<path d="M17455 21782 c-16 -9 -36 -25 -43 -35 -7 -9 -18 -15 -23 -12 -5 4 -9
1 -9 -4 0 -19 63 -12 100 10 42 26 53 41 37 51 -18 11 -29 9 -62 -10z"/>
<path d="M17877 21302 c-40 -18 -117 -104 -117 -131 0 -9 -6 -26 -13 -37 -35
-60 -60 -111 -67 -134 -4 -14 -11 -34 -16 -45 -7 -18 -6 -18 9 -7 14 12 62 93
115 196 8 16 42 55 75 86 37 34 58 62 56 72 -4 16 -6 16 -42 0z"/>
<path d="M18140 21019 c0 -5 5 -7 10 -4 6 3 10 8 10 11 0 2 -4 4 -10 4 -5 0
-10 -5 -10 -11z"/>
<path d="M18077 20949 c-21 -17 -37 -35 -37 -40 0 -5 -24 -34 -52 -65 -65 -68
-71 -80 -60 -100 11 -19 16 -13 161 194 17 23 29 42 27 42 -1 0 -19 -14 -39
-31z"/>
<path d="M9396 17871 c-4 -6 -3 -18 2 -27 8 -15 10 -14 16 2 8 20 -8 42 -18
25z"/>
<path d="M4414 18012 c-20 -14 -105 -149 -114 -183 -20 -68 -5 -63 39 14 16
28 39 62 51 75 12 12 23 32 26 45 2 12 8 23 14 25 12 4 14 32 3 32 -5 0 -13
-4 -19 -8z"/>
<path d="M4242 17697 c-14 -40 -16 -65 -3 -51 10 9 26 84 19 84 -2 0 -9 -15
-16 -33z"/>
<path d="M6444 17191 c19 -21 46 -18 46 5 0 9 -11 14 -32 14 -30 0 -31 -1 -14
-19z"/>
<path d="M14248 24447 c-77 -33 -59 -47 32 -26 41 9 59 22 60 42 0 13 -44 6
-92 -16z"/>
<path d="M11330 24451 c0 -10 26 -9 36 2 4 4 -2 7 -14 7 -12 0 -22 -4 -22 -9z"/>
<path d="M14128 24413 c6 -2 18 -2 25 0 6 3 1 5 -13 5 -14 0 -19 -2 -12 -5z"/>
<path d="M13405 24400 c-8 -14 42 -32 79 -28 20 2 31 9 31 18 0 18 -99 27
-110 10z"/>
<path d="M15645 24390 c-3 -5 1 -10 9 -10 9 0 16 5 16 10 0 6 -4 10 -9 10 -6
0 -13 -4 -16 -10z"/>
<path d="M15583 24347 c-22 -12 -70 -36 -105 -54 -35 -18 -75 -45 -90 -60 -46
-50 -99 -134 -95 -151 3 -12 31 10 103 84 57 58 123 114 155 132 86 48 114 91
32 49z"/>
<path d="M10382 23994 c4 -21 22 -23 26 -1 2 10 -3 17 -13 17 -10 0 -15 -6
-13 -16z"/>
<path d="M11097 23964 c-8 -8 3 -34 14 -34 11 0 12 27 0 34 -4 3 -11 3 -14 0z"/>
<path d="M13740 23920 c0 -5 7 -10 16 -10 8 0 12 5 9 10 -3 6 -10 10 -16 10
-5 0 -9 -4 -9 -10z"/>
<path d="M9940 23900 c0 -5 5 -10 11 -10 5 0 7 5 4 10 -3 6 -8 10 -11 10 -2 0
-4 -4 -4 -10z"/>
<path d="M10850 23900 c0 -6 7 -13 15 -17 24 -9 27 1 5 15 -13 8 -20 8 -20 2z"/>
<path d="M13848 23823 c23 -16 30 -43 11 -43 -10 0 -39 -59 -39 -80 0 -5 9
-10 20 -10 15 0 20 7 20 26 0 24 3 25 27 19 16 -4 28 -7 28 -8 0 -1 5 -11 11
-22 11 -20 25 -29 97 -59 l37 -16 -16 25 c-9 13 -23 27 -33 30 -9 2 -47 39
-84 80 -38 41 -76 75 -85 74 -14 0 -13 -3 6 -16z"/>
<path d="M14947 23783 c-8 -21 -18 -53 -22 -72 l-7 -34 25 19 c31 23 47 55 47
94 0 43 -25 38 -43 -7z"/>
<path d="M14427 23686 c4 -7 22 -26 40 -40 18 -15 35 -35 38 -45 5 -15 17 -25
68 -49 18 -9 5 37 -15 51 -13 8 -42 34 -66 56 -41 40 -82 57 -65 27z"/>
<path d="M13756 23677 c-13 -10 -17 -20 -12 -32 6 -17 8 -17 22 4 20 29 14 46
-10 28z"/>
<path d="M14867 23614 c-19 -26 -16 -59 5 -52 16 6 33 58 22 68 -5 5 -17 -3
-27 -16z"/>
<path d="M9310 23590 c0 -5 9 -10 21 -10 11 0 17 5 14 10 -3 6 -13 10 -21 10
-8 0 -14 -4 -14 -10z"/>
<path d="M13734 23580 c-8 -18 -8 -32 -1 -50 l11 -25 4 28 c2 15 2 37 0 49 -3
22 -3 22 -14 -2z"/>
<path d="M14077 23332 c-12 -18 7 -64 30 -73 68 -25 152 4 108 38 -46 35 -126
55 -138 35z"/>
<path d="M13874 23277 c-8 -5 -29 -5 -46 -2 -38 9 -31 -7 12 -25 23 -9 37 -10
55 -2 13 6 47 8 79 5 37 -4 56 -2 56 5 0 6 -5 14 -11 18 -16 10 -128 11 -145
1z"/>
<path d="M6985 22709 c-49 -4 -148 -12 -220 -18 -71 -5 -155 -14 -185 -20
-105 -19 -235 -49 -260 -60 -77 -34 -221 -118 -271 -159 -32 -26 -75 -60 -96
-77 -154 -122 -364 -372 -438 -523 -39 -79 -85 -190 -85 -204 0 -23 22 -3 43
40 116 232 315 480 487 602 34 25 84 62 112 84 53 40 164 100 239 129 46 17
199 51 309 67 167 25 262 46 392 86 26 8 52 14 58 14 17 0 42 28 35 40 -3 5
-12 9 -18 8 -7 -1 -52 -5 -102 -9z"/>
<path d="M5570 21526 c0 -2 14 -21 31 -42 16 -22 40 -52 52 -67 12 -16 49 -56
82 -90 33 -34 76 -80 95 -102 l35 -40 3 40 c3 37 0 43 -66 105 -176 167 -232
214 -232 196z"/>
<path d="M19200 21491 c5 -11 15 -23 20 -26 14 -9 12 19 -2 33 -19 19 -30 14
-18 -7z"/>
<path d="M5427 21429 c-3 -25 -4 -56 -1 -70 13 -54 26 -89 35 -89 11 0 0 108
-16 164 l-12 40 -6 -45z"/>
<path d="M6122 21424 c-13 -9 -30 -13 -38 -10 -18 7 -68 -39 -59 -54 3 -6 2
-10 -3 -10 -8 0 -52 -63 -52 -75 0 -2 9 -1 20 2 22 6 52 42 45 54 -3 4 6 2 20
-4 33 -16 33 -62 0 -107 -14 -19 -25 -40 -25 -47 0 -25 -51 -114 -62 -111 -7
3 -16 18 -22 36 -11 33 -42 70 -51 61 -9 -10 14 -72 36 -95 18 -19 20 -31 16
-100 -2 -44 -8 -92 -12 -108 -11 -40 12 -31 47 20 18 26 28 52 28 79 0 40 29
117 48 129 6 3 14 21 18 39 3 17 20 56 35 86 16 30 29 61 29 70 0 9 9 41 20
71 11 30 20 63 20 72 0 22 -28 23 -58 2z"/>
<path d="M5480 21180 c0 -16 4 -30 8 -30 5 0 7 14 4 30 -2 17 -6 30 -8 30 -2
0 -4 -13 -4 -30z"/>
<path d="M20350 18538 c0 -9 5 -20 10 -23 13 -8 13 5 0 25 -8 13 -10 13 -10
-2z"/>
<path d="M3470 18450 c0 -11 5 -20 10 -20 6 0 10 9 10 20 0 11 -4 20 -10 20
-5 0 -10 -9 -10 -20z"/>
<path d="M20240 18363 c0 -4 5 -15 10 -23 8 -13 10 -13 10 2 0 9 -4 20 -10 23
-5 3 -10 3 -10 -2z"/>
<path d="M3414 18293 c-32 -74 -28 -169 3 -100 13 28 28 137 19 137 -3 0 -13
-17 -22 -37z"/>
<path d="M3370 18120 c0 -5 5 -10 10 -10 6 0 10 5 10 10 0 6 -4 10 -10 10 -5
0 -10 -4 -10 -10z"/>
<path d="M20361 17900 c0 -14 7 -68 14 -120 l15 -95 -5 90 c-4 87 -23 185 -24
125z"/>
<path d="M3520 17647 c0 -26 4 -47 9 -47 8 0 3 79 -5 89 -2 2 -4 -17 -4 -42z"/>
<path d="M3892 16928 c7 -38 151 -219 163 -206 3 3 -1 13 -10 21 -8 9 -15 20
-15 26 0 6 -14 21 -31 33 -17 13 -37 36 -45 53 -20 41 -66 95 -62 73z"/>
<path d="M8724 16922 c-17 -2 -28 -21 -52 -85 -17 -45 -42 -113 -56 -150 -35
-92 -34 -126 5 -163 17 -16 34 -38 38 -48 7 -17 18 -20 72 -20 51 -1 70 -6 93
-23 20 -16 33 -20 45 -13 25 13 16 114 -19 215 -15 44 -40 116 -55 160 -43
123 -47 131 -71 127z"/>
<path d="M4142 16619 c2 -7 10 -15 17 -17 8 -3 12 1 9 9 -2 7 -10 15 -17 17
-8 3 -12 -1 -9 -9z"/>
<path d="M10775 16580 c-3 -11 -11 -20 -16 -20 -5 0 -9 -7 -9 -15 0 -28 -22
-61 -61 -88 -22 -16 -39 -37 -39 -48 0 -10 -4 -19 -10 -19 -5 0 -10 -5 -10
-10 0 -20 55 18 118 80 34 34 62 68 62 75 0 7 7 15 15 19 23 8 18 33 -7 40
-34 9 -36 8 -43 -14z"/>
<path d="M16610 16501 c0 -17 18 -21 24 -6 3 9 0 15 -9 15 -8 0 -15 -4 -15 -9z"/>
<path d="M8473 16399 c-14 -36 -1 -45 32 -23 29 19 29 34 -1 45 -16 6 -22 1
-31 -22z"/>
<path d="M3930 16259 c0 -5 5 -7 10 -4 6 3 10 8 10 11 0 2 -4 4 -10 4 -5 0
-10 -5 -10 -11z"/>
<path d="M3876 16215 c-16 -12 -17 -15 -4 -15 9 0 18 7 22 15 7 18 6 18 -18 0z"/>
<path d="M19366 15701 c-6 -8 66 -59 134 -96 21 -11 46 -27 56 -36 11 -9 31
-19 46 -23 22 -5 25 -3 21 14 -7 25 -14 31 -103 76 -41 21 -86 46 -99 56 -26
19 -47 23 -55 9z"/>
<path d="M20259 15643 c-10 -67 42 -128 57 -68 11 42 -3 75 -31 75 -14 0 -25
-3 -26 -7z"/>
<path d="M7941 15550 c-65 -48 -71 -88 -7 -58 35 17 86 88 62 88 -7 0 -32 -14
-55 -30z"/>
<path d="M20190 15481 c0 -3 17 -14 38 -24 20 -9 56 -28 80 -42 39 -23 82 -33
82 -20 0 14 -53 57 -87 71 -38 16 -113 26 -113 15z"/>
<path d="M19344 15379 c-7 -11 22 -59 36 -59 17 0 21 19 8 39 -15 25 -35 34
-44 20z"/>
<path d="M16971 15168 c-9 -25 -8 -29 4 -24 9 3 15 0 15 -9 0 -21 17 -18 30 4
16 31 12 48 -15 53 -20 4 -26 0 -34 -24z"/>
<path d="M19570 14513 c0 -13 5 -23 10 -23 13 0 13 11 0 30 -8 12 -10 11 -10
-7z"/>
<path d="M19060 13850 c-19 -11 -30 -19 -23 -20 18 0 63 22 63 32 0 10 1 11
-40 -12z"/>
<path d="M10595 13822 c-34 -7 -37 -18 -11 -36 34 -22 60 -72 44 -82 -18 -11
-189 -7 -293 7 -106 14 -112 14 -232 0 -19 -2 -16 -26 5 -43 9 -8 35 -19 57
-26 182 -50 186 -52 165 -77 -8 -10 -29 -15 -60 -15 -27 0 -55 -3 -64 -6 -18
-7 -22 -24 -5 -24 5 0 29 -9 52 -19 23 -11 60 -22 82 -26 37 -7 95 -54 95 -77
0 -16 63 -63 109 -81 25 -10 60 -25 77 -32 18 -8 41 -11 52 -8 12 3 31 -2 44
-11 15 -11 44 -16 88 -16 53 0 69 -4 83 -20 9 -11 13 -21 9 -21 -4 -1 -18 -3
-32 -4 -218 -27 -559 -94 -780 -153 -52 -13 -126 -33 -165 -43 -142 -38 -457
-160 -597 -230 -31 -16 -63 -29 -70 -29 -13 0 -117 -51 -237 -117 -36 -19 -78
-40 -95 -47 -80 -29 -166 -110 -166 -156 0 -16 73 -53 129 -65 45 -9 73 -7
156 7 55 10 120 25 144 33 25 8 51 15 59 15 9 0 23 6 31 14 16 13 84 27 246
50 44 6 98 21 120 32 31 16 53 20 100 17 37 -3 85 2 125 12 36 9 77 19 92 22
32 6 48 48 48 124 0 48 19 77 41 64 6 -4 24 -35 40 -69 36 -77 153 -233 198
-263 134 -90 502 -111 616 -36 67 44 185 185 230 273 33 66 55 162 55 242 0
51 3 69 13 65 8 -3 12 -23 11 -61 -1 -31 3 -56 8 -56 5 0 18 -15 29 -34 11
-19 26 -33 32 -30 7 2 21 -2 32 -10 27 -20 7 -43 -23 -27 -18 9 -21 6 -35 -35
-14 -43 -14 -47 7 -72 27 -34 23 -67 -12 -90 -24 -15 -89 -72 -165 -144 -15
-15 -26 -32 -23 -36 3 -5 40 -12 83 -16 43 -3 94 -11 113 -16 19 -6 52 -10 72
-10 45 0 53 -25 11 -33 -153 -30 -231 -57 -269 -93 -57 -52 -47 -61 74 -63 43
-1 97 5 129 14 32 10 71 14 96 10 93 -12 124 -13 165 -5 50 9 59 -1 43 -43 -9
-24 -7 -29 27 -52 20 -14 41 -25 46 -25 5 0 18 -7 28 -16 14 -13 21 -14 32 -5
11 9 15 6 20 -15 5 -18 3 -30 -6 -36 -10 -6 -10 -10 2 -18 8 -5 21 -10 28 -10
8 0 12 -16 12 -44 0 -27 5 -46 13 -49 31 -10 219 101 302 180 22 21 75 69 117
106 86 77 111 109 102 132 -5 13 -15 15 -44 10 -41 -7 -96 11 -118 38 -11 12
-11 20 -2 38 11 20 17 21 86 16 l73 -5 -6 31 c-6 34 -68 148 -111 206 -28 38
-29 38 53 -7 71 -38 101 -65 135 -121 13 -23 29 -41 35 -41 17 0 36 40 38 82
1 20 5 40 9 43 12 12 45 -5 58 -30 19 -36 64 -34 101 6 33 35 35 44 14 65 -8
9 -15 29 -15 45 0 29 1 29 55 29 35 0 65 6 81 17 28 18 74 84 74 106 0 7 15
18 33 25 18 7 44 22 56 34 13 12 54 30 92 40 37 10 92 29 121 42 94 42 160 47
318 21 113 -19 189 -45 260 -90 25 -16 59 -37 75 -46 47 -27 153 -134 174
-176 11 -23 23 -81 30 -148 7 -60 14 -123 16 -140 2 -16 13 -102 25 -190 33
-255 43 -296 85 -340 19 -21 35 -43 35 -50 0 -6 18 -27 41 -46 55 -46 86 -89
70 -98 -9 -6 -8 -11 4 -21 8 -7 15 -20 15 -29 0 -13 2 -14 9 -2 7 11 12 5 19
-22 6 -20 8 -45 6 -54 -3 -11 7 -29 25 -47 26 -25 31 -27 31 -11 0 10 14 30
32 45 17 14 32 35 33 46 1 10 7 30 12 44 l10 25 8 -33 c4 -21 2 -38 -5 -47
-20 -24 -2 -55 32 -55 20 0 39 -9 54 -25 13 -14 26 -21 29 -15 9 15 34 12 52
-5 14 -14 19 -13 58 9 38 23 51 25 116 21 43 -3 89 -13 114 -25 23 -11 53 -20
67 -20 15 0 28 -5 30 -12 4 -10 25 0 76 38 2 1 -8 25 -24 53 -25 47 -26 54
-15 92 9 30 9 44 1 54 -7 8 -10 42 -8 87 l3 73 65 14 c36 7 69 20 75 28 19 25
157 18 310 -17 33 -8 88 -9 160 -4 61 4 129 8 153 9 23 2 49 8 57 15 8 6 19 9
25 5 5 -3 10 -3 10 1 0 17 -48 100 -75 129 -43 46 -55 63 -55 75 0 14 -36 13
-59 -2 -24 -15 -51 -4 -51 20 0 12 11 24 29 32 16 6 37 20 47 31 12 13 21 16
33 9 24 -13 112 11 251 67 20 8 26 7 31 -5 4 -13 7 -11 11 6 8 29 42 29 62 0
14 -20 14 -23 -7 -43 -12 -12 -32 -25 -44 -29 -18 -6 -23 -15 -23 -41 0 -33 1
-34 30 -24 19 7 39 7 57 1 31 -10 89 2 113 24 9 7 44 20 79 28 35 8 70 21 79
29 10 8 38 26 64 41 28 17 52 40 62 61 27 56 48 65 140 60 45 -2 95 -7 111
-10 17 -3 47 -8 68 -11 20 -4 43 -14 50 -23 35 -49 215 -149 263 -146 84 6
144 33 144 65 0 11 7 20 15 20 9 0 15 9 15 24 0 29 35 92 55 100 8 3 15 1 15
-4 0 -17 25 -11 43 10 19 22 22 41 8 55 -5 6 -18 36 -29 67 -17 47 -18 59 -7
68 19 16 9 36 -23 50 -20 8 -38 33 -66 93 -48 99 -70 130 -99 134 -12 2 -32
16 -44 31 -12 15 -22 22 -23 15 0 -15 -40 -5 -65 17 -11 10 -40 27 -65 39 -25
12 -50 30 -55 42 -6 13 -38 32 -85 51 -41 16 -82 35 -90 43 -8 7 -31 16 -50
20 -46 10 -90 33 -90 47 0 6 -8 17 -17 24 -17 12 -17 14 3 34 46 46 244 47
339 1 23 -11 54 -21 70 -24 17 -2 43 -9 58 -15 16 -7 30 -12 33 -12 3 0 39
-16 80 -35 41 -19 78 -35 83 -35 5 0 14 -7 22 -16 8 -10 21 -13 37 -9 18 4 25
1 29 -15 4 -14 14 -20 32 -20 36 0 89 -34 109 -70 11 -19 25 -30 40 -30 25 0
25 -10 12 162 -9 131 -10 134 -78 253 -55 97 -169 204 -346 325 -112 76 -296
152 -423 174 -49 8 -97 18 -105 21 -9 4 -27 -5 -44 -22 -28 -28 -33 -29 -144
-32 -94 -2 -127 1 -175 17 -132 43 -196 37 -221 -24 -23 -55 -73 -74 -193 -74
-81 0 -116 -5 -183 -26 -52 -17 -113 -28 -163 -30 -44 -2 -89 -8 -100 -13 -11
-6 -51 -20 -90 -32 -38 -12 -75 -26 -82 -31 -7 -6 -30 -3 -59 7 -62 21 -87 14
-142 -39 -25 -24 -77 -61 -116 -82 -77 -41 -54 -38 -337 -47 l-116 -3 -41 -43
-42 -43 -77 0 c-50 0 -85 -5 -98 -14 -27 -20 -59 -17 -107 7 -36 18 -42 19
-50 6 -5 -9 -19 -14 -35 -12 -19 2 -35 -7 -58 -30 -33 -32 -33 -32 -142 -33
-108 -1 -163 -12 -163 -32 0 -5 -9 -10 -20 -10 -18 0 -50 -39 -33 -40 4 -1
-12 -11 -37 -23 -33 -17 -53 -21 -74 -15 -20 5 -40 3 -59 -7 -17 -8 -43 -15
-58 -15 -16 0 -53 -11 -82 -25 -64 -29 -132 -42 -149 -28 -16 13 -93 28 -158
32 -26 1 -52 42 -54 85 -1 21 -89 101 -94 86 -5 -15 -19 -12 -26 6 -8 22 4 64
19 64 6 0 19 8 28 18 15 16 15 20 -2 48 -22 36 -55 48 -75 28 -18 -17 -58 -18
-89 -2 -12 6 -29 14 -37 18 -8 4 -19 21 -25 38 -7 25 -15 32 -35 32 -14 0 -32
-6 -38 -12 -10 -10 -14 -10 -21 0 -4 7 -12 12 -17 11 -33 -6 -54 5 -78 41 -14
22 -26 46 -26 55 0 8 -12 17 -27 21 -16 3 -41 10 -57 15 -38 12 -103 12 -111
-1 -12 -19 -64 -10 -112 20 -44 27 -52 28 -97 19 -28 -5 -59 -6 -70 -2 -27 8
-90 5 -120 -7 -18 -7 -31 -3 -60 18 -34 24 -45 26 -161 28 -72 1 -149 9 -185
18 -80 21 -93 20 -115 -4 -19 -20 -63 -27 -81 -11 -13 12 -137 41 -175 41 -17
0 -68 11 -113 24 -44 14 -115 30 -156 36 -41 6 -88 13 -105 16 -16 2 -34 5
-40 7 -5 2 -19 1 -30 -1z m345 -592 c0 -5 -7 -10 -15 -10 -8 0 -15 5 -15 10 0
6 7 10 15 10 8 0 15 -4 15 -10z m5645 -92 c28 -13 32 -23 10 -32 -23 -8 -45 4
-45 25 0 22 1 23 35 7z m-6167 -240 c18 -18 14 -63 -7 -82 -10 -9 -34 -19 -54
-23 -61 -9 -100 54 -60 99 19 21 102 25 121 6z m5206 -14 c42 -16 -3 -102 -47
-88 -26 8 -57 33 -57 47 0 35 60 58 104 41z m416 -9 c10 -12 10 -15 -1 -15 -8
0 -1 -7 16 -16 58 -30 63 -39 59 -114 -2 -42 0 -70 6 -70 21 0 9 -26 -17 -37
-30 -12 -74 -27 -84 -28 -4 0 -44 -33 -90 -73 -46 -40 -105 -85 -132 -101 -26
-15 -44 -31 -40 -34 10 -11 -29 -36 -55 -37 -13 0 -35 -6 -50 -14 -81 -40
-286 -56 -343 -25 -22 11 -22 12 -4 25 10 8 37 14 59 14 74 0 270 29 324 47
43 15 72 38 153 117 86 85 101 106 115 152 8 30 14 62 13 71 -3 21 11 134 18
146 7 12 40 8 53 -8z m-576 -10 c19 -14 14 -35 -8 -35 -18 0 -39 27 -31 40 8
13 16 12 39 -5z m-594 -236 c41 -116 39 -147 -7 -96 -36 39 -65 115 -57 150
14 69 24 61 64 -54z m-3581 39 c-22 -19 -23 -19 -30 -1 -7 20 16 34 40 25 11
-4 8 -10 -10 -24z m746 -358 c4 -6 -13 -10 -44 -10 -28 0 -51 5 -51 10 0 6 20
10 44 10 25 0 48 -4 51 -10z m2452 -812 c-3 -8 -6 -5 -6 6 -1 11 2 17 5 13 3
-3 4 -12 1 -19z"/>
<path d="M9845 13630 c-57 -13 -116 -52 -102 -66 10 -11 277 -5 297 6 27 14
25 38 -2 49 -33 12 -158 19 -193 11z"/>
<path d="M5295 13403 c-27 -14 -52 -29 -54 -35 -1 -5 -13 -19 -25 -31 -28 -28
-52 -92 -67 -182 -16 -99 -12 -565 5 -582 14 -15 56 69 56 113 0 11 4 24 10
30 9 9 37 135 43 194 2 14 8 24 15 23 7 -2 12 2 12 7 0 6 -4 10 -9 10 -5 0 -7
9 -4 19 3 11 10 18 16 15 14 -5 54 75 98 196 45 125 34 115 135 114 131 0 215
-38 352 -157 57 -49 130 -121 164 -161 82 -97 82 -96 74 -61 -4 17 -27 62 -52
100 -116 184 -302 311 -561 381 -132 36 -149 37 -208 7z"/>
<path d="M3912 12913 c-16 -61 -19 -88 -12 -123 12 -62 20 -80 36 -80 11 0 14
20 14 88 1 48 6 103 13 122 17 49 15 65 -9 68 -18 3 -23 -7 -42 -75z"/>
<path d="M4157 12793 c-10 -10 -8 -45 2 -39 11 7 21 46 12 46 -4 0 -11 -3 -14
-7z"/>
<path d="M4387 12685 c-3 -20 -2 -46 2 -58 7 -18 10 -14 16 26 5 29 4 52 -2
58 -7 7 -12 -2 -16 -26z"/>
<path d="M6169 12676 c-14 -30 -7 -62 26 -110 14 -20 25 -41 25 -46 0 -6 7
-10 16 -10 14 0 16 8 10 61 -8 68 -21 110 -39 121 -19 12 -27 9 -38 -16z"/>
<path d="M18340 12621 c0 -79 1 -81 21 -71 29 16 33 34 18 86 -25 82 -39 77
-39 -15z"/>
<path d="M4200 12531 c0 -6 5 -13 10 -16 6 -3 10 1 10 9 0 9 -4 16 -10 16 -5
0 -10 -4 -10 -9z"/>
<path d="M4226 12471 c-7 -11 13 -71 23 -71 7 0 8 25 3 68 -2 14 -18 16 -26 3z"/>
<path d="M4280 12341 c0 -17 12 -41 21 -41 5 0 9 11 9 25 0 16 -6 25 -15 25
-8 0 -15 -4 -15 -9z"/>
<path d="M10810 12155 c-14 -8 -33 -14 -42 -15 -25 0 -24 -47 1 -55 23 -7 56
5 105 39 l38 26 -27 10 c-34 13 -45 12 -75 -5z"/>
<path d="M14356 11421 c-3 -5 4 -12 17 -16 12 -3 17 -8 11 -11 -16 -7 -2 -68
20 -90 10 -9 14 -24 11 -34 -9 -28 14 -35 37 -12 23 23 18 72 -7 72 -18 0 -20
37 -2 43 18 6 -10 37 -34 37 -11 0 -19 5 -19 10 0 12 -27 13 -34 1z"/>
<path d="M14430 11220 c0 -5 7 -10 15 -10 8 0 15 5 15 10 0 6 -7 10 -15 10 -8
0 -15 -4 -15 -10z"/>
<path d="M7083 10535 c-3 -9 4 -44 16 -79 11 -34 21 -75 21 -90 0 -31 27 -83
47 -90 23 -9 27 45 8 99 -10 27 -20 78 -23 113 -5 61 -5 62 -34 62 -17 0 -31
-6 -35 -15z"/>
<path d="M6545 10429 c-49 -9 -95 -46 -95 -76 0 -15 43 -38 90 -48 19 -3 68
-23 108 -42 67 -33 74 -35 89 -21 23 23 11 56 -45 130 -53 69 -63 73 -147 57z"/>
<path d="M6824 10193 c-5 -19 -2 -30 11 -40 42 -30 59 -4 29 42 -21 32 -32 32
-40 -2z"/>
<path d="M14393 10203 c-31 -28 -37 -70 -13 -90 41 -36 79 -14 80 45 0 22 -5
32 -15 32 -8 0 -15 7 -15 15 0 20 -12 19 -37 -2z"/>
<path d="M5510 10180 c0 -5 4 -10 9 -10 5 0 13 -9 16 -20 3 -11 13 -20 21 -20
8 0 14 -4 14 -10 0 -5 12 -10 26 -10 24 0 23 3 -22 40 -50 41 -64 48 -64 30z"/>
<path d="M7177 10176 c-9 -22 13 -82 42 -117 l26 -31 14 25 c18 34 8 68 -30
106 -34 34 -44 38 -52 17z"/>
<path d="M5598 10093 c-6 -34 7 -63 30 -63 16 0 24 -33 10 -42 -10 -6 -10 -8
-1 -8 7 0 10 -6 8 -13 -3 -6 5 -17 17 -22 15 -6 23 -20 25 -38 1 -15 9 -34 17
-43 19 -18 21 -31 4 -16 -22 18 -32 11 -56 -40 -25 -56 -25 -118 2 -312 25
-177 25 -182 7 -213 -10 -15 -39 -44 -65 -63 -26 -19 -57 -43 -68 -53 -45 -42
-291 -126 -425 -146 -40 -6 -82 -15 -95 -20 -13 -6 -57 -20 -98 -32 -77 -23
-90 -32 -90 -61 0 -12 12 -20 38 -26 44 -11 597 -36 610 -28 5 3 40 8 78 12
53 4 79 12 112 35 24 16 49 29 56 29 8 0 19 6 25 14 6 8 26 20 44 27 18 7 42
23 54 37 20 22 24 23 38 8 21 -21 32 -20 45 3 7 13 7 22 0 26 -13 8 68 82 99
90 41 11 46 -9 15 -62 -15 -26 -29 -53 -30 -60 -1 -7 13 -28 32 -47 19 -19 34
-41 34 -49 0 -20 36 -50 63 -52 67 -5 117 -18 117 -31 0 -33 -58 -99 -128
-146 -108 -73 -313 -140 -432 -142 -47 0 -93 3 -102 7 -15 8 -16 5 -8 -22 17
-59 61 -99 168 -153 132 -66 146 -84 137 -177 -6 -65 -5 -71 40 -177 26 -60
53 -129 60 -154 32 -116 90 -235 172 -359 13 -19 23 -42 23 -52 0 -22 -48 -51
-123 -74 -32 -10 -60 -22 -63 -26 -16 -26 -225 7 -334 53 -103 44 -227 150
-277 239 -43 73 -78 239 -70 329 6 69 38 198 61 252 57 131 113 293 97 284
-23 -14 -130 -267 -157 -368 -34 -133 -43 -210 -33 -297 14 -124 66 -264 124
-333 14 -16 25 -34 25 -39 0 -5 7 -9 15 -9 8 0 15 -4 15 -9 0 -16 173 -111
260 -142 47 -17 102 -40 123 -50 48 -24 76 -24 93 -1 10 13 31 18 98 21 98 4
110 -2 126 -58 6 -20 21 -48 33 -64 l23 -27 47 16 c46 16 51 21 48 56 -2 11 9
23 24 30 24 11 29 10 41 -7 8 -10 14 -25 14 -32 0 -7 1 -13 3 -13 1 0 40 -4
86 -10 72 -8 100 -6 217 15 73 14 144 25 158 25 13 0 82 11 153 25 129 26 173
26 173 1 0 -27 -29 -43 -111 -61 -45 -9 -112 -28 -149 -41 -41 -14 -110 -27
-177 -32 -60 -6 -118 -15 -129 -21 -10 -5 -54 -14 -97 -20 -65 -8 -83 -14
-112 -40 -57 -50 -84 -50 -162 -1 -12 8 -25 11 -28 8 -14 -14 -23 -82 -14
-104 7 -20 15 -24 54 -24 50 0 54 -7 28 -50 -17 -29 -33 -40 -88 -61 -16 -6
-25 -13 -18 -16 19 -7 3 -33 -21 -33 -24 0 -27 12 -26 102 1 26 -6 61 -15 77
-8 17 -15 41 -15 55 0 32 -20 76 -34 76 -24 -1 -86 -70 -86 -96 0 -6 9 -21 20
-34 14 -16 18 -30 13 -49 -8 -33 -20 -41 -60 -41 -57 0 -99 -76 -55 -98 30
-16 172 -31 302 -32 l126 -1 24 40 c26 42 31 45 145 80 81 25 83 26 194 80 46
23 94 41 107 41 12 0 29 8 36 18 20 28 99 79 136 86 41 10 49 -8 27 -60 -29
-71 -36 -121 -25 -192 24 -160 33 -155 91 53 17 61 34 131 38 157 7 48 16 62
65 113 l29 30 -6 -50 c-4 -28 -9 -90 -12 -140 -4 -49 -10 -119 -16 -155 -5
-36 -16 -114 -25 -175 -9 -60 -22 -125 -30 -144 -19 -45 -18 -87 2 -95 9 -3
31 -6 49 -6 43 0 65 9 65 26 0 8 4 14 9 14 4 0 11 33 13 74 5 78 30 127 71
141 36 13 100 -71 148 -192 20 -49 22 -6 5 100 -23 141 -33 209 -46 302 -7 44
-18 114 -26 155 -43 229 -84 607 -124 1130 -18 228 -57 492 -102 670 -29 119
-86 256 -112 273 -11 7 -77 30 -146 51 -192 58 -266 85 -377 138 -55 26 -107
48 -115 48 -7 0 -39 16 -71 35 -32 19 -60 35 -62 35 -19 0 -224 163 -263 209
-93 111 -240 337 -227 349 2 2 -7 15 -21 29 -13 13 -24 27 -24 31 0 4 -12 15
-28 24 -15 9 -40 28 -55 42 -26 25 -65 35 -69 19z m117 -84 c-4 -5 -12 -9 -18
-8 -9 0 -8 2 1 6 6 2 9 10 6 15 -4 7 -2 8 5 4 6 -4 9 -12 6 -17z m32 -25 c-3
-3 -12 -4 -19 -1 -8 3 -5 6 6 6 11 1 17 -2 13 -5z m2 -194 c7 0 9 -5 6 -11 -8
-11 -55 27 -55 44 0 6 8 0 19 -11 10 -12 24 -22 30 -22z m111 -564 c0 -17 -87
-76 -112 -76 -23 0 -15 16 21 45 54 44 91 57 91 31z m682 -491 c-5 -43 -57
-143 -143 -275 -42 -63 -88 -135 -104 -159 -15 -25 -36 -53 -46 -64 -9 -11
-38 -54 -62 -96 -25 -42 -52 -83 -61 -90 -9 -7 -16 -18 -16 -23 0 -5 -9 -21
-20 -35 -16 -21 -20 -41 -20 -102 l-1 -76 -46 94 c-66 136 -68 199 -6 329 30
63 63 82 143 82 27 0 50 4 50 10 0 5 13 24 29 42 16 19 47 72 70 118 53 112
75 145 141 219 62 69 98 79 92 26z m-9 -308 c18 -47 -50 -201 -157 -356 -74
-107 -196 -339 -196 -372 0 -9 -6 -22 -14 -29 -22 -17 -39 55 -38 153 2 71 5
82 34 123 18 25 47 66 65 92 122 183 281 402 292 402 5 0 11 -6 14 -13z m404
-394 c-28 -157 -91 -286 -184 -378 -99 -98 -362 -230 -394 -198 -20 20 33 62
111 89 108 37 207 125 349 308 61 79 85 118 94 156 12 52 33 71 24 23z m-257
-1001 c0 -12 -14 -25 -40 -37 -45 -20 -55 -17 -45 15 12 37 85 55 85 22z"/>
<path d="M14410 10057 c0 -12 39 -42 46 -35 6 6 -26 48 -37 48 -5 0 -9 -6 -9
-13z"/>
<path d="M16694 8846 c-7 -19 3 -36 22 -36 10 0 14 8 12 22 -4 26 -26 36 -34
14z"/>
<path d="M9106 8214 c-4 -11 -10 -77 -13 -148 -5 -97 -3 -127 5 -122 7 4 12
32 13 64 0 31 4 89 8 127 8 72 1 115 -13 79z"/>
<path d="M12590 7221 c0 -6 5 -13 10 -16 6 -3 10 1 10 9 0 9 -4 16 -10 16 -5
0 -10 -4 -10 -9z"/>
<path d="M5540 7150 c0 -11 4 -20 8 -20 5 0 14 -11 20 -24 11 -24 106 -85 157
-100 17 -4 44 -9 60 -9 50 0 155 15 155 23 0 8 -127 50 -151 50 -15 0 -77 19
-101 31 -10 5 -24 9 -32 9 -8 0 -28 14 -46 30 -38 35 -70 40 -70 10z"/>
<path d="M15416 6482 c-2 -4 -1 -14 4 -22 7 -11 11 -11 24 -1 9 7 13 17 10 22
-7 11 -31 12 -38 1z"/>
<path d="M14853 6254 c-3 -8 -11 -14 -19 -14 -8 0 -28 -13 -45 -30 -18 -16
-35 -27 -39 -25 -4 3 -10 -1 -13 -9 -3 -8 -18 -20 -34 -28 -19 -9 -29 -22 -31
-40 -2 -20 -10 -28 -31 -33 -16 -3 -32 -5 -37 -4 -37 7 -67 -5 -104 -41 -23
-22 -48 -40 -56 -40 -8 0 -14 -7 -14 -15 0 -14 -39 -60 -44 -53 -2 2 -8 16
-13 32 -6 21 -17 30 -35 33 -35 5 -48 -30 -22 -59 12 -12 17 -31 15 -49 -4
-41 14 -59 59 -59 32 0 39 -4 44 -25 6 -25 39 -35 51 -15 3 6 17 7 31 4 19 -5
23 -3 18 10 -3 9 -2 16 2 17 56 7 81 5 97 -8 16 -15 17 -14 17 5 0 26 25 29
75 8 41 -17 82 -9 114 23 26 26 26 31 4 31 -15 0 -15 2 -4 9 22 14 129 12 143
-3 16 -17 48 -8 49 13 0 13 2 14 6 1 15 -40 47 -32 63 15 6 18 20 41 30 50 22
20 27 71 8 78 -10 3 -10 9 -2 23 7 13 25 20 53 22 26 2 41 8 41 17 0 7 -5 15
-12 17 -7 3 -9 11 -4 24 5 12 10 15 13 7 3 -8 13 -3 27 15 33 40 39 62 18 69
-9 3 -29 15 -44 25 -43 30 -66 24 -74 -19 -4 -21 -12 -41 -18 -45 -6 -4 -2
-10 11 -15 18 -7 19 -11 10 -24 -9 -11 -23 -14 -49 -11 -33 4 -38 8 -38 29 0
21 -2 23 -15 13 -19 -16 -31 -7 -52 38 -9 20 -22 40 -27 44 -20 13 -117 7
-123 -8z m144 -356 c-3 -8 -6 -5 -6 6 -1 11 2 17 5 13 3 -3 4 -12 1 -19z"/>
<path d="M15098 6258 c9 -9 15 -9 24 0 9 9 7 12 -12 12 -19 0 -21 -3 -12 -12z"/>
<path d="M14057 5983 c-14 -13 -6 -33 13 -33 13 0 20 7 20 20 0 19 -20 27 -33
13z"/>
<path d="M14894 5855 c-9 -21 1 -30 35 -33 35 -3 41 13 14 34 -24 18 -42 17
-49 -1z"/>
<path d="M14416 5781 c-4 -7 -5 -15 -2 -18 9 -9 19 4 14 18 -4 11 -6 11 -12 0z"/>
<path d="M14920 5750 c0 -5 4 -10 9 -10 6 0 13 5 16 10 3 6 -1 10 -9 10 -9 0
-16 -4 -16 -10z"/>
<path d="M14830 5732 c0 -11 9 -27 19 -36 16 -15 20 -15 28 -3 4 8 15 16 23
19 10 3 5 10 -17 21 -41 22 -53 21 -53 -1z"/>
<path d="M7635 3159 c-4 -6 -13 -8 -20 -5 -8 3 -21 -7 -31 -21 -9 -15 -34 -45
-55 -68 -21 -23 -51 -68 -65 -100 -24 -51 -26 -65 -20 -124 16 -150 144 -539
242 -734 93 -184 350 -547 508 -717 23 -25 77 -85 120 -135 43 -49 84 -95 90
-100 6 -6 33 -35 60 -65 28 -30 123 -131 213 -224 90 -92 216 -229 280 -305
64 -75 153 -176 197 -226 111 -123 204 -231 250 -287 35 -44 42 -48 82 -48 24
0 44 4 44 9 0 5 -19 33 -42 61 -24 29 -59 74 -78 100 -20 26 -48 58 -62 71
-14 13 -66 69 -115 124 -50 55 -179 190 -288 300 -316 321 -420 430 -523 554
-53 64 -130 155 -172 202 -166 190 -179 206 -318 414 -78 116 -196 349 -237
465 -34 98 -64 217 -75 295 -18 131 -14 188 30 461 6 34 10 73 10 88 0 26 -13
35 -25 15z"/>
<path d="M15710 3040 c0 -28 2 -30 40 -30 36 0 40 -3 40 -25 0 -27 19 -75 31
-75 4 0 10 18 14 40 7 40 19 51 28 28 11 -28 6 28 -5 59 -12 33 -12 33 -80 33
l-68 0 0 -30z"/>
<path d="M15610 3016 c0 -8 5 -18 10 -21 6 -3 10 3 10 14 0 12 -4 21 -10 21
-5 0 -10 -6 -10 -14z"/>
<path d="M14777 2925 c-7 -18 6 -27 26 -19 18 7 11 34 -8 34 -7 0 -15 -7 -18
-15z"/>
<path d="M15771 2927 c-7 -9 -22 -17 -34 -19 -42 -6 -26 -98 17 -98 20 0 40
61 28 81 -8 13 -8 19 0 21 6 2 9 10 7 17 -4 10 -8 10 -18 -2z"/>
<path d="M15600 2922 c0 -14 29 -48 30 -34 0 7 5 10 10 7 15 -9 12 4 -4 21
-16 15 -36 19 -36 6z"/>
<path d="M14724 2795 c-3 -8 -3 -19 1 -25 11 -18 25 -11 25 15 0 27 -17 34
-26 10z"/>
<path d="M15770 2770 c0 -11 5 -20 10 -20 6 0 10 9 10 20 0 11 -4 20 -10 20
-5 0 -10 -9 -10 -20z"/>
<path d="M14855 2660 c3 -5 8 -10 11 -10 2 0 4 5 4 10 0 6 -5 10 -11 10 -5 0
-7 -4 -4 -10z"/>
<path d="M7002 2480 c-109 -39 -231 -148 -424 -381 -96 -115 -340 -421 -435
-545 -186 -241 -325 -411 -424 -516 -30 -31 -119 -134 -199 -229 -80 -94 -188
-222 -240 -283 -113 -132 -403 -440 -462 -490 l-42 -36 1332 0 c733 0 1332 3
1332 6 0 17 -171 535 -252 764 -213 598 -278 851 -278 1069 0 114 24 185 190
581 15 35 16 48 7 56 -23 22 -52 23 -105 4z"/>
<path d="M15670 2360 c0 -5 5 -10 10 -10 6 0 10 5 10 10 0 6 -4 10 -10 10 -5
0 -10 -4 -10 -10z"/>
<path d="M16126 2354 c-4 -9 0 -24 9 -34 8 -9 15 -24 15 -33 0 -9 7 -17 15
-17 9 0 15 9 15 24 0 13 3 31 6 40 4 12 0 16 -15 16 -12 0 -21 5 -21 10 0 16
-17 11 -24 -6z"/>
<path d="M16275 2341 c-3 -5 -1 -40 5 -78 6 -37 8 -129 6 -203 -2 -74 -5 -189
-5 -255 -1 -81 -4 -115 -11 -105 -5 8 -10 33 -11 55 -2 34 -3 36 -6 10 -6 -43
-23 -56 -24 -19 l-1 29 -8 -30 c-8 -30 -8 -30 -9 -3 0 14 -6 28 -12 30 -7 2
-12 27 -11 63 2 164 1 190 -7 193 -4 1 -5 19 -1 40 5 30 2 41 -17 59 -16 16
-19 23 -9 26 15 6 19 57 5 57 -5 0 -9 -6 -9 -13 0 -8 -17 -18 -37 -23 -33 -8
-38 -13 -38 -37 1 -22 -4 -27 -22 -27 -18 0 -23 -6 -23 -26 0 -28 21 -54 44
-54 10 0 14 9 13 26 -1 15 4 29 11 31 8 3 12 -6 12 -26 0 -17 -4 -31 -10 -31
-5 0 -10 -18 -10 -39 0 -22 -5 -41 -11 -43 -5 -2 -7 -11 -3 -21 3 -10 13 -16
20 -13 11 4 14 -8 14 -55 0 -56 -3 -64 -35 -96 -42 -42 -54 -37 -70 30 -8 32
-15 43 -32 45 -24 3 -34 -23 -12 -30 16 -5 18 -98 2 -98 -10 0 -13 -22 -13
-85 0 -71 -3 -87 -17 -92 -9 -4 -19 -1 -21 5 -2 7 -11 4 -25 -9 -20 -19 -21
-21 -5 -33 11 -8 15 -20 11 -34 -3 -12 0 -29 7 -37 17 -20 22 -66 7 -64 -35 4
-40 -1 -34 -43 3 -24 3 -35 0 -25 -4 15 -8 14 -33 -10 -16 -15 -31 -36 -34
-48 -3 -12 -17 -27 -31 -33 -15 -7 -25 -20 -25 -32 0 -24 -25 -27 -34 -4 -3 9
-6 28 -6 42 1 23 2 25 11 9 17 -28 29 -10 29 44 l0 49 -60 0 c-33 0 -60 -4
-60 -9 0 -19 36 -71 49 -71 10 0 12 -9 6 -37 -4 -21 -10 -62 -14 -91 -7 -55
-33 -89 -39 -52 -2 14 -11 20 -28 20 -13 0 -24 -5 -24 -11 0 -5 4 -8 9 -5 5 4
13 -8 16 -26 4 -18 12 -39 17 -45 6 -7 8 -26 6 -43 -3 -16 -1 -30 3 -30 10 0
-2 -74 -13 -78 -4 -2 -8 -26 -8 -53 0 -27 -4 -57 -9 -67 -27 -49 -48 -149 -41
-194 4 -29 3 -51 -4 -58 -7 -7 -7 -10 0 -10 6 0 9 -13 6 -30 -2 -16 -8 -28
-12 -25 -11 7 -43 -32 -36 -44 8 -12 -10 -52 -28 -63 -8 -6 -7 -11 3 -17 13
-8 12 -15 -3 -49 -10 -22 -15 -45 -11 -52 4 -6 0 -22 -9 -35 -9 -13 -16 -36
-16 -50 0 -15 -4 -24 -10 -20 -5 3 -10 15 -10 26 0 36 -18 19 -26 -23 -4 -24
-9 -35 -12 -26 -4 18 -37 25 -46 10 -3 -5 -2 -18 1 -30 l5 -22 1048 0 c1039 0
1048 0 1053 20 3 11 10 20 17 20 6 0 9 -4 6 -9 -4 -5 3 -7 14 -4 10 3 26 -2
35 -11 24 -23 90 -21 115 4 24 24 26 46 4 54 -13 5 -14 9 -4 21 8 10 11 33 8
65 -3 27 0 54 6 60 19 19 46 11 59 -17 6 -16 16 -31 22 -35 11 -8 28 29 19 43
-9 15 6 49 22 49 17 0 19 -39 2 -75 -9 -19 -9 -28 0 -37 9 -9 12 -7 13 8 1 10
1 23 0 28 -1 4 5 19 14 32 20 31 21 86 0 78 -11 -5 -15 0 -14 17 1 46 -19 129
-31 129 -5 0 -11 18 -15 39 -3 22 -13 47 -20 58 -8 10 -15 28 -15 40 0 12 -4
25 -10 28 -5 3 -10 15 -10 25 0 33 -123 293 -175 370 -19 28 -35 55 -35 59 0
13 -181 313 -233 386 -28 39 -80 105 -116 148 -36 43 -86 102 -110 130 -75 89
-282 296 -371 371 -47 40 -123 99 -170 131 -191 133 -193 134 -205 116z m-135
-521 c0 -5 -2 -10 -4 -10 -3 0 -8 5 -11 10 -3 6 -1 10 4 10 6 0 11 -4 11 -10z
m-110 -150 c0 -22 -4 -40 -10 -40 -5 0 -10 18 -10 40 0 22 5 40 10 40 6 0 10
-18 10 -40z m176 -18 c-12 -12 -18 8 -10 35 l8 28 4 -28 c2 -16 1 -31 -2 -35z
m-429 -524 c-3 -8 -6 -5 -6 6 -1 11 2 17 5 13 3 -3 4 -12 1 -19z m-42 -18 c-3
-5 -10 -10 -16 -10 -5 0 -9 5 -9 10 0 6 7 10 16 10 8 0 12 -4 9 -10z"/>
<path d="M16111 2284 c0 -11 3 -14 6 -6 3 7 2 16 -1 19 -3 4 -6 -2 -5 -13z"/>
<path d="M15883 2263 c-7 -2 -13 -13 -13 -23 0 -21 37 -37 51 -23 13 13 -22
53 -38 46z"/>
<path d="M16080 2200 c0 -5 7 -10 15 -10 8 0 15 5 15 10 0 6 -7 10 -15 10 -8
0 -15 -4 -15 -10z"/>
<path d="M15810 2009 c0 -11 5 -17 10 -14 6 3 10 13 10 21 0 8 -4 14 -10 14
-5 0 -10 -9 -10 -21z"/>
<path d="M15866 1954 c-3 -8 -2 -13 3 -9 5 3 21 1 35 -5 23 -8 26 -7 26 10 0
15 -7 20 -29 20 -17 0 -31 -6 -35 -16z"/>
<path d="M15755 1928 c-15 -22 -14 -23 10 -26 l26 -3 -22 -20 c-18 -16 -21
-26 -16 -65 4 -39 1 -49 -19 -69 -13 -14 -23 -30 -22 -37 2 -7 -7 -14 -19 -16
-13 -2 -23 1 -23 7 0 6 -4 11 -10 11 -21 0 -9 -30 20 -47 17 -9 30 -21 30 -25
0 -4 14 -8 30 -8 23 0 30 4 30 20 0 11 5 20 10 20 14 0 13 123 -1 137 -8 8 -2
21 25 48 47 47 46 62 -1 56 -7 -1 -13 7 -13 19 0 26 -15 26 -35 -2z"/>
<path d="M16032 1930 c0 -14 2 -19 5 -12 2 6 2 18 0 25 -3 6 -5 1 -5 -13z"/>
<path d="M15870 1900 c0 -5 14 -10 30 -10 17 0 30 5 30 10 0 6 -13 10 -30 10
-16 0 -30 -4 -30 -10z"/>
<path d="M15820 1829 c0 -18 2 -19 15 -5 8 8 15 17 15 20 0 3 -7 6 -15 6 -9 0
-15 -9 -15 -21z"/>
<path d="M16030 1810 c0 -11 7 -20 15 -20 13 0 14 4 5 20 -6 11 -13 20 -15 20
-3 0 -5 -9 -5 -20z"/>
<path d="M15710 1808 c0 -9 -6 -18 -12 -21 -7 -2 -10 -8 -6 -12 12 -13 37 20
27 36 -7 11 -9 11 -9 -3z"/>
<path d="M15800 1776 c0 -22 17 -28 24 -10 9 22 8 24 -9 24 -8 0 -15 -6 -15
-14z"/>
<path d="M15861 1744 c0 -11 3 -14 6 -6 3 7 2 16 -1 19 -3 4 -6 -2 -5 -13z"/>
<path d="M14053 1738 c2 -7 10 -13 17 -13 7 0 15 6 18 13 2 7 -5 12 -18 12
-13 0 -20 -5 -17 -12z"/>
<path d="M14030 1702 c0 -5 9 -17 19 -26 21 -19 35 -8 25 18 -6 16 -44 23 -44
8z"/>
<path d="M15672 1601 c26 -33 38 -38 38 -16 0 8 -4 15 -10 15 -5 0 -10 7 -10
15 0 9 -9 15 -21 15 -20 0 -20 0 3 -29z"/>
<path d="M15150 1529 c0 -11 5 -17 10 -14 6 3 10 13 10 21 0 8 -4 14 -10 14
-5 0 -10 -9 -10 -21z"/>
<path d="M15636 1485 c-3 -8 -1 -15 4 -15 6 0 10 7 10 15 0 8 -2 15 -4 15 -2
0 -6 -7 -10 -15z"/>
<path d="M14983 1430 c0 -25 2 -35 4 -22 2 12 2 32 0 45 -2 12 -4 2 -4 -23z"/>
<path d="M15133 1430 c0 -25 2 -35 4 -22 2 12 2 32 0 45 -2 12 -4 2 -4 -23z"/>
<path d="M15613 1449 c-7 -7 -13 -22 -13 -33 0 -19 1 -19 16 -4 9 8 14 23 12
32 -2 14 -5 15 -15 5z"/>
<path d="M15622 1340 c0 -14 2 -19 5 -12 2 6 2 18 0 25 -3 6 -5 1 -5 -13z"/>
<path d="M14960 1146 c0 -2 7 -9 15 -16 12 -10 15 -10 15 4 0 9 -7 16 -15 16
-8 0 -15 -2 -15 -4z"/>
<path d="M15620 1125 c-7 -14 -11 -28 -7 -31 9 -9 37 22 37 40 0 24 -15 19
-30 -9z"/>
<path d="M14878 663 c7 -3 16 -2 19 1 4 3 -2 6 -13 5 -11 0 -14 -3 -6 -6z"/>
<path d="M14873 633 c-22 -8 -14 -23 12 -23 14 0 25 4 25 9 0 11 -21 19 -37
14z"/>
<path d="M17830 160 c0 -5 5 -10 10 -10 6 0 10 5 10 10 0 6 -4 10 -10 10 -5 0
-10 -4 -10 -10z"/>
<path d="M17780 111 c0 -10 7 -24 15 -31 12 -10 15 -10 15 3 0 23 -11 47 -21
47 -5 0 -9 -8 -9 -19z"/>
<path d="M15314 29 c-3 -6 -1 -16 5 -22 8 -8 11 -5 11 11 0 24 -5 28 -16 11z"/>
</g>
</svg>
